<svg xmlns="http://www.w3.org/2000/svg" width="104.727" height="31.751" viewBox="0 0 104.727 31.751">
  <g id="visa" transform="translate(0 -0.125)">
    <path id="Shape" d="M0,29.922,5.319,0h8.312L8.478,29.922Z" transform="translate(38.4 1.122)" fill="#3c58bf"/>
    <path id="Shape-2" data-name="Shape" d="M0,29.922,6.816,0h6.816L8.478,29.922Z" transform="translate(38.4 1.122)" fill="#293688"/>
    <path id="Shape-3" data-name="Shape" d="M25.434,1.33A21.085,21.085,0,0,0,17.787,0c-8.312,0-14.3,4.156-14.3,10.14,0,4.488,4.156,6.816,7.481,8.312s4.322,2.494,4.322,3.823c0,1.995-2.66,2.992-4.987,2.992a18.068,18.068,0,0,1-7.979-1.662l-1.164-.5L0,29.922a26.954,26.954,0,0,0,9.475,1.662c8.81,0,14.629-4.156,14.629-10.473,0-3.491-2.161-6.151-7.148-8.312-2.992-1.5-4.821-2.327-4.821-3.823,0-1.33,1.5-2.66,4.821-2.66a15.247,15.247,0,0,1,6.317,1.164l.831.332,1.33-6.483Z" transform="translate(51.532 0.125)" fill="#3c58bf"/>
    <path id="Shape-4" data-name="Shape" d="M25.434,1.33A21.085,21.085,0,0,0,17.787,0c-8.312,0-12.8,4.156-12.8,10.14,0,4.488,2.66,6.816,5.984,8.312s4.322,2.494,4.322,3.823c0,1.995-2.66,2.992-4.987,2.992a18.068,18.068,0,0,1-7.979-1.662l-1.164-.5L0,29.922a26.954,26.954,0,0,0,9.475,1.662c8.81,0,14.629-4.156,14.629-10.473,0-3.491-2.161-6.151-7.148-8.312-2.992-1.5-4.821-2.327-4.821-3.823,0-1.33,1.5-2.66,4.821-2.66a15.247,15.247,0,0,1,6.317,1.164l.831.332,1.33-6.483Z" transform="translate(51.532 0.125)" fill="#293688"/>
    <path id="Shape-5" data-name="Shape" d="M8.976,29.923H0L12.468,2.161C13.3.155,14.786,0,16.79,0h6.484l6.981,29.921H22.275l-1-4.987H10.639L8.977,29.922ZM17.455,8.146c-.494,1.152-1.157,2.973-1.164,2.992-.028.073-2.832,7.333-3.325,8.811v.166h6.982c-.326-1.628-1.927-8.837-2-9.143Z" transform="translate(74.473 1.122)" fill="#3c58bf"/>
    <path id="Shape-6" data-name="Shape" d="M8.976,29.923H0L14.462,2.161C15.3.155,16.781,0,18.785,0h4.488l6.981,29.921H22.275l-1-4.987H10.639L8.977,29.922ZM17.455,8.146c-.494,1.152-1.157,2.973-1.164,2.992-.027.071-2.664,7.16-3.325,8.811v.166h6.982c-.326-1.628-1.927-8.837-2-9.143Z" transform="translate(74.473 1.122)" fill="#293688"/>
    <path id="Shape-7" data-name="Shape" d="M12.468,20.779l-.831-4.322C10.14,11.47,5.319,5.984,0,3.325l7.481,26.6h8.977L29.922,0H20.945Z" transform="translate(10.639 1.288)" fill="#3c58bf"/>
    <path id="Shape-8" data-name="Shape" d="M12.468,20.779l-.831-4.322C10.14,11.47,5.319,5.984,0,3.325l7.481,26.6h8.977L29.922,0H22.608Z" transform="translate(10.639 1.288)" fill="#293688"/>
    <path id="Shape-9" data-name="Shape" d="M0,0,1.5.332c10.639,2.494,17.953,8.81,20.779,16.291L19.283,2.494C18.784.5,17.288,0,15.46,0H0Z" transform="translate(0 1.122)" fill="#ffbc00"/>
    <path id="Shape-10" data-name="Shape" d="M0,0H0C10.639,2.494,19.449,8.977,22.275,16.457l-2.826-11.8A4.058,4.058,0,0,0,15.46,1.5Z" transform="translate(0 1.122)" fill="#f7981d"/>
    <path id="Shape-11" data-name="Shape" d="M0,0H0C10.639,2.494,19.449,8.977,22.275,16.457L20.281,9.974c-.5-1.995-1.164-3.99-3.491-4.821Z" transform="translate(0 1.122)" fill="#ed7c00"/>
    <g id="Group" transform="translate(10.805 4.364)">
      <path id="Shape-12" data-name="Shape" d="M20.613,16.623l-5.652-5.652L12.3,17.288l-.665-4.156C10.14,8.145,5.319,2.66,0,0L7.481,26.6h8.977Z" transform="translate(0 0.083)" fill="#051244"/>
      <path id="Shape-13" data-name="Shape" d="M8.478,7.314,1.33,0,0,7.314Z" transform="translate(27.595 19.366)" fill="#051244"/>
      <path id="Shape-14" data-name="Shape" d="M14.462,0h0c.665.665,1,1.164.831,1.829,0,1.995-2.66,2.992-4.987,2.992A18.068,18.068,0,0,1,2.327,3.158l-1.164-.5L0,9.475a26.954,26.954,0,0,0,9.475,1.662c5.319,0,9.642-1.5,12.135-4.156Z" transform="translate(40.727 16.374)" fill="#051244"/>
      <path id="Shape-15" data-name="Shape" d="M0,21.777H7.813L9.475,16.79H20.114l1,4.987h7.979L26.265,9.642,16.291,0l.5,2.66s1.662,7.481,1.995,9.143H11.8c.665-1.662,3.325-8.81,3.325-8.81S15.792,1.164,16.291,0" transform="translate(64.831 4.904)" fill="#051244"/>
    </g>
  </g>
</svg>
