<svg xmlns="http://www.w3.org/2000/svg" width="53.053" height="31.832" viewBox="0 0 53.053 31.832">
  <g id="mastercard" transform="translate(0 -0.084)">
    <path id="Shape" d="M31.832,15.916A15.916,15.916,0,0,1,0,15.916H0a15.916,15.916,0,1,1,31.832,0Z" transform="translate(21.221 0.084)" fill="#ffb600"/>
    <path id="Shape-2" data-name="Shape" d="M15.916,0A15.957,15.957,0,0,1,31.832,15.916h0A15.916,15.916,0,0,1,0,15.916" transform="translate(21.221 0.084)" fill="#f7981d"/>
    <path id="Shape-3" data-name="Shape" d="M0,0A15.957,15.957,0,0,1,15.916,15.916h0A15.9,15.9,0,0,1,0,31.832" transform="translate(37.137 0.084)" fill="#ff8500"/>
    <path id="Shape-4" data-name="Shape" d="M15.747,0a15.916,15.916,0,0,0,.168,31.832,16.1,16.1,0,0,0,10.695-4.126h0a15.132,15.132,0,0,0,1.6-1.684H24.926a19.428,19.428,0,0,1-1.179-1.6h5.642a10.788,10.788,0,0,0,.926-1.684H22.821a10.037,10.037,0,0,1-.674-1.684h8.758A16.721,16.721,0,0,0,31.747,16a21.737,21.737,0,0,0-.337-3.368H21.642a12.312,12.312,0,0,1,.421-1.684h8.758a10.037,10.037,0,0,0-.674-1.684H22.737a16.7,16.7,0,0,1,.926-1.684h5.642a8.008,8.008,0,0,0-1.263-1.684H24.926a14.353,14.353,0,0,1,1.6-1.6A15.539,15.539,0,0,0,15.832.168C15.832,0,15.832,0,15.747,0Z" transform="translate(0 0.084)" fill="#ff5050"/>
    <path id="Shape-5" data-name="Shape" d="M0,15.747A15.9,15.9,0,0,0,15.916,31.663a16.1,16.1,0,0,0,10.695-4.126h0a15.132,15.132,0,0,0,1.6-1.684H24.926a19.428,19.428,0,0,1-1.179-1.6h5.642a10.788,10.788,0,0,0,.926-1.684H22.821a10.037,10.037,0,0,1-.674-1.684h8.758a16.721,16.721,0,0,0,.842-5.053,21.737,21.737,0,0,0-.337-3.368H21.642a12.311,12.311,0,0,1,.421-1.684h8.758a10.037,10.037,0,0,0-.674-1.684H22.737a16.7,16.7,0,0,1,.926-1.684h5.642a8.008,8.008,0,0,0-1.263-1.684H24.926a14.353,14.353,0,0,1,1.6-1.6A15.539,15.539,0,0,0,15.832,0h-.084" transform="translate(0 0.253)" fill="#e52836"/>
    <path id="Shape-6" data-name="Shape" d="M.168,31.663a16.1,16.1,0,0,0,10.695-4.126h0a15.132,15.132,0,0,0,1.6-1.684H9.179A19.427,19.427,0,0,1,8,24.253h5.642a10.788,10.788,0,0,0,.926-1.684H7.074A10.037,10.037,0,0,1,6.4,20.884h8.758A16.721,16.721,0,0,0,16,15.832a21.737,21.737,0,0,0-.337-3.368H5.895a12.311,12.311,0,0,1,.421-1.684h8.758A10.037,10.037,0,0,0,14.4,9.095H6.989a16.7,16.7,0,0,1,.926-1.684h5.642a8.008,8.008,0,0,0-1.263-1.684H9.179a14.353,14.353,0,0,1,1.6-1.6A15.539,15.539,0,0,0,.084,0H0" transform="translate(15.747 0.253)" fill="#cb2026"/>
    <g id="Group" transform="translate(1.474 11.789)">
      <path id="Shape-7" data-name="Shape" d="M2.442,7.411l.253-1.432a3.647,3.647,0,0,1-.421.084c-.589,0-.674-.337-.589-.505l.505-2.947h.926l.253-1.6H2.526L2.695,0H1.011S0,5.558,0,6.232A1.264,1.264,0,0,0,1.347,7.663,2.585,2.585,0,0,0,2.442,7.411Z" transform="translate(17.642 0.842)" fill="#fff"/>
      <path id="Shape-8" data-name="Shape" d="M2.947,6.747a3.246,3.246,0,0,1-1.979-.59A2.813,2.813,0,0,1,0,3.8C0,1.669,1.234,0,2.809,0c.073,0,.148,0,.222.011a2.317,2.317,0,0,1,1.916.81,2.649,2.649,0,0,1,.526,1.631,10.837,10.837,0,0,1-.253,1.517H1.769a1.1,1.1,0,0,0,.182.873,1.612,1.612,0,0,0,1.334.474A5.085,5.085,0,0,0,5.053,4.9L4.716,6.5A4.513,4.513,0,0,1,2.947,6.747Zm0-5.389c-.962,0-1.1,1.167-1.1,1.179H3.705c0-.007,0-.02,0-.038a1.2,1.2,0,0,0-.213-.93A.711.711,0,0,0,2.947,1.358Z" transform="translate(20.674 1.758)" fill="#fff"/>
      <path id="Shape-9" data-name="Shape" d="M4.632,8.168l.337-1.853a4.139,4.139,0,0,1-1.432.421c-1.179,0-1.684-.926-1.684-1.937,0-2.021,1.011-3.116,2.189-3.116a2.812,2.812,0,0,1,1.516.505L5.811.421A5.921,5.921,0,0,0,3.874,0C1.937,0,0,1.684,0,4.884,0,6.989,1.011,8.421,3.032,8.421A7.558,7.558,0,0,0,4.632,8.168Z" transform="translate(29.684 0.084)" fill="#fff"/>
      <path id="Shape-10" data-name="Shape" d="M1.6,6.821c-.267,0-1.6-.089-1.6-1.853A2.245,2.245,0,0,1,.979,2.979a3.743,3.743,0,0,1,2.052-.537H3.79s.084-.086.084-.42c0-.518-.526-.59-1.094-.59a5.025,5.025,0,0,0-1.853.337L1.179.337A6.1,6.1,0,0,1,3.2,0C4.688,0,5.474.728,5.474,2.105L4.8,6.737H3.284l.085-.673c-.019,0-.054.033-.112.087A2.3,2.3,0,0,1,1.6,6.821ZM3.2,3.705c-1.319,0-1.516.633-1.516,1.011a.655.655,0,0,0,.674.673c1.11,0,1.179-1.583,1.179-1.6A1.634,1.634,0,0,1,3.2,3.705Z" transform="translate(7.621 1.6)" fill="#fff"/>
      <path id="Shape-11" data-name="Shape" d="M1.937,6.905A2.158,2.158,0,0,0,4.463,4.716c0-2.105-2.021-1.684-2.021-2.526,0-.421.337-.589.926-.589.253,0,1.179.084,1.179.084L4.8.168A6.4,6.4,0,0,0,3.2,0C1.937,0,.674.505.674,2.189c0,1.937,2.105,1.768,2.105,2.526,0,.505-.589.589-1.011.589A5.507,5.507,0,0,1,.253,5.053L0,6.568C.084,6.737.505,6.905,1.937,6.905Z" transform="translate(12.758 1.516)" fill="#fff"/>
      <path id="Shape-12" data-name="Shape" d="M2.105,8.253A1.843,1.843,0,0,1,.516,7.369,3.522,3.522,0,0,1,0,5.474,4.915,4.915,0,0,1,.863,2.632a2.554,2.554,0,0,1,2-1.2,2.347,2.347,0,0,1,1.6.842L4.8,0,6.568.085,5.306,8.168H3.621L3.7,7.582l0,0A2.291,2.291,0,0,1,2.105,8.253ZM3.116,3.031c-.793,0-1.347.9-1.347,2.19,0,.856.338,1.347.926,1.347.875,0,1.347-1.085,1.347-2.105C4.042,3.5,3.739,3.031,3.116,3.031Z" transform="translate(43.495 0.253)" fill="#fff"/>
      <path id="Shape-13" data-name="Shape" d="M1.6,8.084,2.611,2.021l.168,6.063H3.958L6.147,2.021,5.221,8.084H6.989L8.337,0H5.558L3.874,4.968,3.789,0H1.347L0,8.084Z" transform="translate(0.042 0.253)" fill="#fff"/>
      <path id="Shape-14" data-name="Shape" d="M1.853,6.568c.505-2.779.589-5.053,1.768-4.632A6.61,6.61,0,0,1,4.211,0H3.874C3.116,0,2.526,1.011,2.526,1.011L2.695.084h-1.6L0,6.653H1.853Z" transform="translate(25.895 1.768)" fill="#fff"/>
      <path id="Shape-15" data-name="Shape" d="M1.6,6.821c-.267,0-1.6-.089-1.6-1.853A2.245,2.245,0,0,1,.979,2.979a3.743,3.743,0,0,1,2.052-.537H3.79s.084-.086.084-.42c0-.518-.526-.59-1.094-.59a5.025,5.025,0,0,0-1.853.337L1.179.337A6.1,6.1,0,0,1,3.2,0,2.4,2.4,0,0,1,5,.606a1.962,1.962,0,0,1,.472,1.5L4.8,6.737H3.284l.085-.673c-.019,0-.054.033-.112.087A2.3,2.3,0,0,1,1.6,6.821ZM3.284,3.705c-1.319,0-1.516.633-1.516,1.011a.654.654,0,0,0,.673.673c1.11,0,1.179-1.583,1.179-1.6C3.537,3.79,3.537,3.79,3.284,3.705Z" transform="translate(34.989 1.6)" fill="#fff"/>
      <path id="Shape-16" data-name="Shape" d="M1.853,6.568c.505-2.779.589-5.053,1.768-4.632A6.61,6.61,0,0,1,4.211,0H3.874C3.116,0,2.526,1.011,2.526,1.011L2.695.084h-1.6L0,6.653H1.853Z" transform="translate(40.042 1.768)" fill="#fff"/>
    </g>
    <g id="Group-2" data-name="Group" transform="translate(1.474 11.789)">
      <path id="Shape-17" data-name="Shape" d="M0,6.232A1.264,1.264,0,0,0,1.347,7.663a3.205,3.205,0,0,0,1.263-.253l.253-1.432a3.647,3.647,0,0,1-.421.084c-.589,0-.674-.337-.589-.505l.505-2.947h.926l.253-1.6H2.695L2.863,0" transform="translate(17.474 0.842)" fill="#dce5e5"/>
      <path id="Shape-18" data-name="Shape" d="M2.105,6.747C.842,6.747,0,6.246,0,3.8,0,1.243.645,0,1.972,0c.07,0,.144,0,.218.011a2.316,2.316,0,0,1,1.915.81,2.65,2.65,0,0,1,.526,1.631,10.837,10.837,0,0,1-.253,1.517H.926a1.1,1.1,0,0,0,.182.873,1.612,1.612,0,0,0,1.334.474A5.085,5.085,0,0,0,4.21,4.9L3.874,6.5A4.508,4.508,0,0,1,2.105,6.747Zm0-5.389c-.961,0-1.094,1.167-1.094,1.179H3.2a1.716,1.716,0,0,0-.38-.871A.937.937,0,0,0,2.105,1.358Z" transform="translate(21.516 1.758)" fill="#dce5e5"/>
      <path id="Shape-19" data-name="Shape" d="M3.789,8.168l.337-1.853a4.139,4.139,0,0,1-1.432.421c-1.179,0-1.684-.926-1.684-1.937,0-2.021,1.011-3.116,2.189-3.116a2.812,2.812,0,0,1,1.516.505L4.968.421A5.921,5.921,0,0,0,3.032,0C1.095,0,0,1.684,0,4.884,0,6.989.168,8.421,2.189,8.421A7.558,7.558,0,0,0,3.789,8.168Z" transform="translate(30.526 0.084)" fill="#dce5e5"/>
      <path id="Shape-20" data-name="Shape" d="M1.6,6.737c-.267,0-1.6-.089-1.6-1.852A2.245,2.245,0,0,1,.979,2.895a3.743,3.743,0,0,1,2.052-.537H3.79s.084-.087.084-.421c0-.518-.526-.589-1.094-.589a5.025,5.025,0,0,0-1.853.337L3.116,0C4.681,0,5.474.68,5.474,2.021L4.8,6.653H3.284l.085-.674c-.019,0-.054.034-.112.087A2.3,2.3,0,0,1,1.6,6.737Zm1.6-3.2c-1.319,0-1.516.633-1.516,1.011a.655.655,0,0,0,.674.673,2.769,2.769,0,0,0,2.02-1.6H4.353A5.446,5.446,0,0,1,3.2,3.537Z" transform="translate(7.621 1.768)" fill="#dce5e5"/>
      <path id="Shape-21" data-name="Shape" d="M0,6.737a7.127,7.127,0,0,0,1.937.168A2.158,2.158,0,0,0,4.463,4.716c0-2.105-2.021-1.684-2.021-2.526,0-.421.337-.589.926-.589.253,0,1.179.084,1.179.084L4.8.168A6.4,6.4,0,0,0,3.2,0C1.937,0,1.516.505,1.516,2.189c0,1.937,1.263,1.768,1.263,2.526,0,.505-.589.589-1.011.589" transform="translate(12.842 1.516)" fill="#dce5e5"/>
      <path id="Shape-22" data-name="Shape" d="M1.269,8.168a1.152,1.152,0,0,1-.864-.3A3.043,3.043,0,0,1,0,5.777c0-.13,0-.259,0-.387A7.43,7.43,0,0,1,.448,2.547a1.687,1.687,0,0,1,1.579-1.2,2.349,2.349,0,0,1,1.6.842L5.732,0,4.469,8.084H2.786L2.869,7.5l0,0A2.291,2.291,0,0,1,1.269,8.168ZM2.28,2.947c-.793,0-1.347.9-1.347,2.19,0,.844.346,1.347.926,1.347.907,0,1.685-1.158,1.685-2.106A1.292,1.292,0,0,0,2.28,2.947Z" transform="translate(44.331 0.337)" fill="#dce5e5"/>
      <path id="Shape-23" data-name="Shape" d="M1.6,8.084,2.611,2.021l.168,6.063H3.958L6.147,2.021,5.221,8.084H6.989L8.337,0H6.232L3.874,4.968,3.789,0H2.863L0,8.084Z" transform="translate(0.042 0.253)" fill="#dce5e5"/>
      <path id="Shape-24" data-name="Shape" d="M0,6.568H1.768c.505-2.779.589-5.053,1.768-4.632A6.61,6.61,0,0,1,4.126,0H3.789C3.032,0,2.442,1.011,2.442,1.011L2.611.084" transform="translate(25.979 1.768)" fill="#dce5e5"/>
      <path id="Shape-25" data-name="Shape" d="M1.6,6.737c-.267,0-1.6-.089-1.6-1.852A2.245,2.245,0,0,1,.979,2.895a3.743,3.743,0,0,1,2.052-.537H3.79s.084-.087.084-.421c0-.518-.526-.589-1.094-.589a5.025,5.025,0,0,0-1.853.337L3.116,0C4.681,0,5.474.68,5.474,2.021L4.8,6.653H3.284l.085-.674c-.019,0-.054.034-.112.087A2.3,2.3,0,0,1,1.6,6.737Zm1.6-3.2c-1.319,0-1.516.633-1.516,1.011a.655.655,0,0,0,.674.673,2.769,2.769,0,0,0,2.02-1.6H4.355A6.247,6.247,0,0,1,3.2,3.537Z" transform="translate(34.989 1.768)" fill="#dce5e5"/>
      <path id="Shape-26" data-name="Shape" d="M0,6.568H1.768c.505-2.779.589-5.053,1.768-4.632A6.61,6.61,0,0,1,4.126,0H3.789C3.032,0,2.442,1.011,2.442,1.011L2.611.084" transform="translate(40.126 1.768)" fill="#dce5e5"/>
    </g>
  </g>
</svg>
