<svg xmlns="http://www.w3.org/2000/svg" width="78" height="78" viewBox="0 0 78 78">
  <g id="Group_3540" data-name="Group 3540" transform="translate(-657.488 -4455.5)">
    <circle id="Oval" cx="36.5" cy="36.5" r="36.5" transform="translate(659.988 4458)" fill="#eef1f4" stroke="#dfe4eb" stroke-miterlimit="10" stroke-width="5"/>
    <g id="Icons_shipped" data-name="Icons/shipped" transform="translate(673.458 4479.742)">
      <g id="shipped" transform="translate(0 0)">
        <path id="Shape" d="M38.586,29.265A4.593,4.593,0,0,1,34,24.677v-.048H17.673v.023a.121.121,0,0,1,0,.024,4.588,4.588,0,1,1-9.176,0,.125.125,0,0,1,0-.025v-.023H4.588a1.5,1.5,0,0,1-1.5-1.5V21.538H.725a.725.725,0,0,1,0-1.449H7.679a.725.725,0,0,1,0,1.449H4.54v1.594a.048.048,0,0,0,.048.048H8.751a4.587,4.587,0,0,1,8.672,0H32.451V17.723a.725.725,0,1,1,1.449,0V23.18h.349a4.586,4.586,0,0,1,8.67,0h1.894V19.993h-.82a2.273,2.273,0,0,1-2.269-2.271V16.178a.725.725,0,0,1,.725-.725H44.7a2.359,2.359,0,0,0-2.251-1.642H33.9v.822a.725.725,0,0,1-1.449,0V1.5a.048.048,0,0,0-.048-.048H4.588A.048.048,0,0,0,4.54,1.5V14.632a.725.725,0,0,1-1.449,0V1.5A1.5,1.5,0,0,1,4.588,0H32.4a1.5,1.5,0,0,1,1.5,1.5V3.091h5.457A3.045,3.045,0,0,1,42.4,6.133v.774a.73.73,0,0,1-.573.708l1.2,4.792a3.838,3.838,0,0,1,3.238,3.771V23.9a.725.725,0,0,1-.725.725H43.172v.048A4.592,4.592,0,0,1,38.586,29.265Zm0-7.727a3.139,3.139,0,1,0,3.139,3.139A3.143,3.143,0,0,0,38.586,21.538Zm-25.5,0a3.139,3.139,0,1,0,3.139,3.139A3.142,3.142,0,0,0,13.087,21.538ZM43.172,16.9v.82a.823.823,0,0,0,.822.822h.82V16.9ZM33.9,7.63v4.733h7.62L40.338,7.63Zm0-3.089V6.182h7.051V6.133A1.6,1.6,0,0,0,39.358,4.54Z" transform="translate(0 0)" fill="#3b86ff"/>
        <path id="Shape-2" data-name="Shape" d="M1.5,0a1.5,1.5,0,1,0,1.5,1.5A1.5,1.5,0,0,0,1.5,0Z" transform="translate(11.59 23.18)" fill="#3b86ff"/>
        <path id="Shape-3" data-name="Shape" d="M1.5,0a1.5,1.5,0,1,0,1.5,1.5A1.5,1.5,0,0,0,1.5,0Z" transform="translate(37.088 23.18)" fill="#3b86ff"/>
        <path id="Shape-4" data-name="Shape" d="M11.542,0H.724a.724.724,0,0,0,0,1.449H11.542a.724.724,0,0,0,0-1.449Z" transform="translate(18.544 20.089)" fill="#3b86ff"/>
        <path id="Shape-5" data-name="Shape" d="M10,0H.724a.724.724,0,0,0,0,1.449H10A.724.724,0,1,0,10,0Z" transform="translate(1.545 16.999)" fill="#3b86ff"/>
        <path id="Shape-6" data-name="Shape" d="M12.054.212a.724.724,0,0,0-1.024,0L4.588,6.654,1.237,3.3A.724.724,0,0,0,.212,4.327L4.076,8.191a.724.724,0,0,0,1.024,0l6.954-6.954A.724.724,0,0,0,12.054.212Z" transform="translate(13.135 6.954)" fill="#3b86ff"/>
      </g>
    </g>
  </g>
</svg>
