<svg xmlns="http://www.w3.org/2000/svg" width="196" height="32.657" viewBox="0 0 196 32.657">
  <g id="Group_3818" data-name="Group 3818" transform="translate(-523 -264.032)">
    <g id="Group_3817" data-name="Group 3817" transform="translate(437.556 250.253)">
      <g id="Group_1077" data-name="Group 1077" transform="translate(85.444 13.779)">
        <path id="Path_218" data-name="Path 218" d="M31.588,12.91A3.027,3.027,0,1,1,28.6,15.941,3.009,3.009,0,0,1,31.588,12.91ZM27.32,34.221V24c0-5.174,8.524-5.227,8.524,0V34.221a11.674,11.674,0,0,1-8.524,0Z" transform="translate(-15.421 -7.287)" fill="#fff" fill-rule="evenodd"/>
        <path id="Path_219" data-name="Path 219" d="M19.017,21.42a2.291,2.291,0,1,1-2.256,2.3A2.273,2.273,0,0,1,19.017,21.42ZM15.79,35.031V29.8c0-2.531,2.7-3.441,4.612-2.7a5.037,5.037,0,0,0-.266,1.612V38.55A11.737,11.737,0,0,1,15.79,35.031ZM31.06,21.42a2.291,2.291,0,1,1-2.256,2.3A2.271,2.271,0,0,1,31.06,21.42ZM29.937,38.554V28.715a4.832,4.832,0,0,0-.257-1.6c1.908-.753,4.612.131,4.612,2.683v5.235A11.75,11.75,0,0,1,29.937,38.554Z" transform="translate(-8.913 -12.091)" fill="#fff" fill-rule="evenodd"/>
        <path id="Path_220" data-name="Path 220" d="M16.054,29.269A12.835,12.835,0,0,1,3.336,16.329,12.835,12.835,0,0,1,16.054,3.389a12.836,12.836,0,0,1,12.727,12.94A12.836,12.836,0,0,1,16.054,29.269ZM16.054,0A16.191,16.191,0,0,0,0,16.329,16.191,16.191,0,0,0,16.054,32.657,16.2,16.2,0,0,0,32.117,16.329,16.2,16.2,0,0,0,16.054,0Z" fill="#fff" fill-rule="evenodd"/>
      </g>
      <g id="Group_138" data-name="Group 138" transform="translate(123.205 19.502)">
        <g id="Group_137" data-name="Group 137">
          <path id="Path_221" data-name="Path 221" d="M94.675,24.707V23.422H90.816a2.174,2.174,0,0,1-.9-.183,2.094,2.094,0,0,1-.693-.5,2,2,0,0,1-.457-.775,2.758,2.758,0,0,1,0-1.929,2,2,0,0,1,.457-.745,2.14,2.14,0,0,1,.693-.5,2.174,2.174,0,0,1,.9-.183h3.859V17.32H90.816a3.654,3.654,0,0,0-1.389.266,3.125,3.125,0,0,0-1.093.736,3.168,3.168,0,0,0-.736,1.132,4.085,4.085,0,0,0-.257,1.481,4.18,4.18,0,0,0,.257,1.5,3.467,3.467,0,0,0,.736,1.193,3.278,3.278,0,0,0,2.483,1.085h3.859Z" transform="translate(-87.061 -15.499)" fill="#fff" fill-rule="evenodd"/>
          <path id="Path_222" data-name="Path 222" d="M112.482,21.462V20.277h-3.95v1.185Zm.274,3.245V23.422h-5.144V18.6h5.135V17.32H106.38v7.387Z" transform="translate(-97.808 -15.499)" fill="#fff" fill-rule="evenodd"/>
          <path id="Path_223" data-name="Path 223" d="M129.753,24.441a.784.784,0,0,0,.571.266.567.567,0,0,0,.449-.2.85.85,0,0,0,.174-.562V17.32h-1.193v5.388l-5.031-5.122a1.148,1.148,0,0,0-.266-.2.839.839,0,0,0-.266-.061.539.539,0,0,0-.457.213.782.782,0,0,0-.174.553v6.625h1.185V19.38Z" transform="translate(-107.506 -15.499)" fill="#fff" fill-rule="evenodd"/>
          <path id="Path_224" data-name="Path 224" d="M145.83,24.707V18.6h2.7V17.32H141.88V18.6h2.7v6.1Z" transform="translate(-117.847 -15.499)" fill="#fff" fill-rule="evenodd"/>
          <path id="Path_225" data-name="Path 225" d="M167.127,24.7l-2.152-2.173a2.076,2.076,0,0,0,1.08-.91,2.994,2.994,0,0,0,.388-1.572,3.532,3.532,0,0,0-.174-1.132,2.28,2.28,0,0,0-1.324-1.411,3.019,3.019,0,0,0-1.08-.2H158.73v7.387h1.246V18.594h3.889a1.4,1.4,0,0,1,1,.348,1.424,1.424,0,0,1,.357,1.05,1.554,1.554,0,0,1-.348,1.08,1.316,1.316,0,0,1-1.01.379h-2.979v1.285h2.674l1.807,1.96Z" transform="translate(-127.358 -15.488)" fill="#fff" fill-rule="evenodd"/>
          <path id="Path_226" data-name="Path 226" d="M182.271,23.422a2.174,2.174,0,0,1-.9-.183,2.094,2.094,0,0,1-.693-.5,2,2,0,0,1-.457-.775,2.758,2.758,0,0,1,0-1.929,2,2,0,0,1,.457-.745,2.14,2.14,0,0,1,.693-.5,2.174,2.174,0,0,1,.9-.183H184a2.174,2.174,0,0,1,.9.183,2.209,2.209,0,0,1,1.185,1.254,2.93,2.93,0,0,1,0,1.916,2.34,2.34,0,0,1-.47.775,2.23,2.23,0,0,1-.714.5,2.174,2.174,0,0,1-.9.183h-1.733Zm1.738,1.285a3.32,3.32,0,0,0,1.4-.287,3.406,3.406,0,0,0,1.1-.8,3.252,3.252,0,0,0,.723-1.193,4.182,4.182,0,0,0,.266-1.5,3.967,3.967,0,0,0-.257-1.459,3.43,3.43,0,0,0-.714-1.141,3.181,3.181,0,0,0-1.1-.745A3.763,3.763,0,0,0,184,17.32h-1.733a3.654,3.654,0,0,0-1.389.266,3.25,3.25,0,0,0-1.093.736,2.976,2.976,0,0,0-.723,1.132,3.91,3.91,0,0,0-.266,1.481,4,4,0,0,0,.266,1.5,3.312,3.312,0,0,0,.723,1.193,3.436,3.436,0,0,0,1.093.8,3.28,3.28,0,0,0,1.389.287h1.738Z" transform="translate(-138.686 -15.499)" fill="#fff" fill-rule="evenodd"/>
          <path id="Path_227" data-name="Path 227" d="M209.016,23.422V18.6H211.9a2.2,2.2,0,0,1,2.064,1.437,2.723,2.723,0,0,1,0,1.916,2.2,2.2,0,0,1-.47.775,2.061,2.061,0,0,1-.706.5,2.105,2.105,0,0,1-.889.183h-2.888Zm2.888,1.285a3.292,3.292,0,0,0,1.4-.287,3.406,3.406,0,0,0,1.1-.8,3.63,3.63,0,0,0,.714-1.193,4.182,4.182,0,0,0,.266-1.5,3.97,3.97,0,0,0-.266-1.459,3.43,3.43,0,0,0-.714-1.141,3.266,3.266,0,0,0-1.1-.745,3.65,3.65,0,0,0-1.4-.266H207.77v7.387Z" transform="translate(-155.038 -15.499)" fill="#fff" fill-rule="evenodd"/>
          <path id="Path_228" data-name="Path 228" d="M233.768,21.462V20.277h-3.95v1.185Zm.279,3.245V23.422H228.9V18.6h5.135V17.32H227.67v7.387Z" transform="translate(-166.271 -15.499)" fill="#fff" fill-rule="evenodd"/>
          <path id="Path_229" data-name="Path 229" d="M258.365,24.707V23.422h-3.859a2.174,2.174,0,0,1-.9-.183,2.094,2.094,0,0,1-.693-.5,2,2,0,0,1-.457-.775,2.758,2.758,0,0,1,0-1.929,2,2,0,0,1,.457-.745,2.14,2.14,0,0,1,.693-.5,2.174,2.174,0,0,1,.9-.183h3.859V17.32h-3.859a3.654,3.654,0,0,0-1.389.266,3.125,3.125,0,0,0-1.093.736,3.168,3.168,0,0,0-.736,1.132,4.084,4.084,0,0,0-.257,1.481,4.18,4.18,0,0,0,.257,1.5,3.466,3.466,0,0,0,.736,1.193,3.278,3.278,0,0,0,2.483,1.085h3.859Z" transform="translate(-179.457 -15.499)" fill="#fff" fill-rule="evenodd"/>
          <path id="Path_230" data-name="Path 230" d="M278.391,24.707l-4.112-6.969a.929.929,0,0,0-.244-.3.6.6,0,0,0-.348-.113.556.556,0,0,0-.357.113.9.9,0,0,0-.257.3l-4.1,6.969h1.42l3.245-5.584,1.594,2.635h-2.2l-.584,1.172h3.367l1.071,1.777Z" transform="translate(-189.583 -15.499)" fill="#fff" fill-rule="evenodd"/>
          <path id="Path_231" data-name="Path 231" d="M296.952,22.622a2.855,2.855,0,0,0,1.1-.2,2.424,2.424,0,0,0,.828-.553,2.654,2.654,0,0,0,.51-.845,3.3,3.3,0,0,0,.174-1.08,3.343,3.343,0,0,0-.174-1.1,2.618,2.618,0,0,0-.51-.828,2.416,2.416,0,0,0-.828-.523,3.123,3.123,0,0,0-1.1-.2H291.93v7.387h1.246V18.594h3.776a1.418,1.418,0,0,1,1.019,2.369,1.334,1.334,0,0,1-1.019.379h-2.866v1.285h2.866Z" transform="translate(-202.543 -15.488)" fill="#fff" fill-rule="evenodd"/>
          <path id="Path_232" data-name="Path 232" d="M317.5,24.707l-4.112-6.969a.814.814,0,0,0-.257-.3.556.556,0,0,0-.348-.113.6.6,0,0,0-.357.113.929.929,0,0,0-.244.3l-4.1,6.969h1.42l3.236-5.584,1.594,2.635h-2.182l-.592,1.172h3.38l1.072,1.777Z" transform="translate(-211.659 -15.499)" fill="#fff" fill-rule="evenodd"/>
          <path id="Path_233" data-name="Path 233" d="M335.919,24.707V23.422h-3.868a2.175,2.175,0,0,1-.9-.183,2.094,2.094,0,0,1-.692-.5,2,2,0,0,1-.457-.775,2.758,2.758,0,0,1,0-1.929,2,2,0,0,1,.457-.745,2.14,2.14,0,0,1,.692-.5,2.175,2.175,0,0,1,.9-.183h3.868V17.32h-3.868a3.654,3.654,0,0,0-1.389.266,3.249,3.249,0,0,0-1.093.736,2.975,2.975,0,0,0-.723,1.132,3.91,3.91,0,0,0-.266,1.481,4,4,0,0,0,.266,1.5,3.313,3.313,0,0,0,.723,1.193,3.435,3.435,0,0,0,1.093.8,3.28,3.28,0,0,0,1.389.287h3.868Z" transform="translate(-223.23 -15.499)" fill="#fff" fill-rule="evenodd"/>
          <rect id="Rectangle_1141" data-name="Rectangle 1141" width="1.246" height="7.387" transform="translate(113.708 1.821)" fill="#fff"/>
          <path id="Path_234" data-name="Path 234" d="M356.57,24.707V18.6h2.7V17.32H352.62V18.6h2.7v6.1Z" transform="translate(-236.799 -15.499)" fill="#fff" fill-rule="evenodd"/>
          <path id="Path_235" data-name="Path 235" d="M375.135,24.707l-4.1-6.969a.9.9,0,0,0-.257-.3.606.606,0,0,0-.706,0,.946.946,0,0,0-.257.3l-4.1,6.969h1.433l3.236-5.584,1.594,2.635h-2.2l-.584,1.172h3.367l1.072,1.777Z" transform="translate(-244.188 -15.499)" fill="#fff" fill-rule="evenodd"/>
          <path id="Path_236" data-name="Path 236" d="M393.57,24.707V23.422h-3.859a2.175,2.175,0,0,1-.9-.183,2.009,2.009,0,0,1-.693-.5,2.2,2.2,0,0,1-.47-.775A2.652,2.652,0,0,1,387.49,21a2.771,2.771,0,0,1,.161-.971,2.151,2.151,0,0,1,.47-.745,2.051,2.051,0,0,1,.693-.5,2.175,2.175,0,0,1,.9-.183h3.859V17.32h-3.859a3.574,3.574,0,0,0-1.389.266,3.161,3.161,0,0,0-1.1.736,3.26,3.26,0,0,0-.723,1.132,4.084,4.084,0,0,0-.257,1.481,4.179,4.179,0,0,0,.257,1.5,3.648,3.648,0,0,0,.723,1.193,3.378,3.378,0,0,0,1.1.8,3.226,3.226,0,0,0,1.389.287h3.859Z" transform="translate(-255.776 -15.499)" fill="#fff" fill-rule="evenodd"/>
          <rect id="Rectangle_1142" data-name="Rectangle 1142" width="1.246" height="7.387" transform="translate(138.826 1.821)" fill="#fff"/>
          <path id="Path_237" data-name="Path 237" d="M416.557,13.937v-.8l-2.509.775V14.5Zm-2.33,7.126a2.174,2.174,0,0,1-.9-.183,2.119,2.119,0,0,1-.693-.51,2.2,2.2,0,0,1-.457-.767,2.653,2.653,0,0,1-.161-.958,2.772,2.772,0,0,1,.161-.971,2.24,2.24,0,0,1,.457-.745,2.14,2.14,0,0,1,.693-.5,2.174,2.174,0,0,1,.9-.183h1.733a2.174,2.174,0,0,1,.9.183,2.209,2.209,0,0,1,1.185,1.254,2.929,2.929,0,0,1,0,1.916,2.3,2.3,0,0,1-.47.767,2.255,2.255,0,0,1-.714.51,2.174,2.174,0,0,1-.9.183h-1.733Zm1.738,1.285a3.265,3.265,0,0,0,1.4-.287,3.315,3.315,0,0,0,1.1-.8,3.389,3.389,0,0,0,.736-1.185,4.6,4.6,0,0,0,.257-1.5,3.982,3.982,0,0,0-.257-1.468,3.568,3.568,0,0,0-.714-1.141,3.182,3.182,0,0,0-1.1-.745,3.714,3.714,0,0,0-1.42-.266h-1.733a3.654,3.654,0,0,0-1.389.266,3.25,3.25,0,0,0-1.093.736,3.048,3.048,0,0,0-.723,1.141,4.053,4.053,0,0,0-.266,1.481,4.252,4.252,0,0,0,.266,1.5,3.511,3.511,0,0,0,1.816,1.982,3.281,3.281,0,0,0,1.389.287h1.733Z" transform="translate(-269.617 -13.14)" fill="#fff" fill-rule="evenodd"/>
          <path id="Path_238" data-name="Path 238" d="M439.252,24.441a.77.77,0,0,0,.571.266.55.55,0,0,0,.44-.2.858.858,0,0,0,.174-.562V17.32h-1.185v5.388l-5.031-5.122a1.175,1.175,0,0,0-.274-.2.788.788,0,0,0-.266-.061.539.539,0,0,0-.457.213.782.782,0,0,0-.174.553v6.625h1.185V19.38Z" transform="translate(-282.198 -15.499)" fill="#fff" fill-rule="evenodd"/>
          <path id="Path_239" data-name="Path 239" d="M91.739,49.941V47.132l3.8-4.582H93.943L91.16,45.96l-2.787-3.41H86.7l3.785,4.582v2.809Z" transform="translate(-86.7 -29.741)" fill="#fff" fill-rule="evenodd"/>
          <path id="Path_240" data-name="Path 240" d="M118.463,48.643V43.835h2.9a2.134,2.134,0,0,1,.889.183,1.955,1.955,0,0,1,.706.488,2.327,2.327,0,0,1,.47.753,2.652,2.652,0,0,1,.161.958,2.806,2.806,0,0,1-.161.971,2.3,2.3,0,0,1-.47.767,2.082,2.082,0,0,1-.706.51,2.276,2.276,0,0,1-.889.174h-2.9Zm2.9,1.3a3.292,3.292,0,0,0,1.4-.287,3.418,3.418,0,0,0,1.093-.8,3.664,3.664,0,0,0,.723-1.193,4.6,4.6,0,0,0,.257-1.5,4.12,4.12,0,0,0-.257-1.459,3.555,3.555,0,0,0-.723-1.154,3.359,3.359,0,0,0-1.093-.745,3.648,3.648,0,0,0-1.4-.257H117.23v7.387h4.133Z" transform="translate(-103.933 -29.741)" fill="#fff" fill-rule="evenodd"/>
          <path id="Path_241" data-name="Path 241" d="M144.335,46.683V45.5h-3.959v1.185Zm.266,3.258v-1.3h-5.135V43.835h5.122V42.55H138.22v7.387H144.6Z" transform="translate(-115.781 -29.741)" fill="#fff" fill-rule="evenodd"/>
          <path id="Path_242" data-name="Path 242" d="M161.8,49.936a2.576,2.576,0,0,0,.971-.174,1.787,1.787,0,0,0,1.1-1.172,2.714,2.714,0,0,0,.144-.889,2.189,2.189,0,0,0-.562-1.655,2.287,2.287,0,0,0-1.655-.553h-3.275a.952.952,0,0,1-.653-.213.776.776,0,0,1-.235-.614.762.762,0,0,1,.235-.614.917.917,0,0,1,.675-.226h5.113V42.54h-5.113a2.765,2.765,0,0,0-.949.152,2.073,2.073,0,0,0-.693.427,1.773,1.773,0,0,0-.418.645,2.411,2.411,0,0,0,.009,1.664,1.906,1.906,0,0,0,.427.662,2,2,0,0,0,.693.427,2.551,2.551,0,0,0,.9.152h3.284a1.109,1.109,0,0,1,.767.244.934.934,0,0,1,.274.736.962.962,0,0,1-.274.714,1.021,1.021,0,0,1-.767.266h-5.349v1.3H161.8Z" transform="translate(-126.008 -29.735)" fill="#fff" fill-rule="evenodd"/>
          <path id="Path_243" data-name="Path 243" d="M184.565,49.941l-4.1-6.982a.957.957,0,0,0-.257-.3.5.5,0,0,0-.348-.113.525.525,0,0,0-.357.113.958.958,0,0,0-.257.3l-4.1,6.982h1.429l3.236-5.592,1.594,2.635h-2.2l-.584,1.185h3.367l1.071,1.777h1.507Z" transform="translate(-136.62 -29.741)" fill="#fff" fill-rule="evenodd"/>
          <path id="Path_244" data-name="Path 244" d="M207.637,49.941l-2.152-2.182a2.076,2.076,0,0,0,1.08-.91,2.952,2.952,0,0,0,.388-1.572,3.532,3.532,0,0,0-.174-1.132,2.609,2.609,0,0,0-.51-.858,2.26,2.26,0,0,0-.814-.54,2.862,2.862,0,0,0-1.093-.2H199.24v7.387h1.237v-6.1h3.885a1.363,1.363,0,0,1,1.01.348,1.39,1.39,0,0,1,.357,1.05,1.523,1.523,0,0,1-.348,1.071,1.278,1.278,0,0,1-1.019.379h-2.97v1.285h2.674l1.808,1.969h1.764Z" transform="translate(-150.224 -29.741)" fill="#fff" fill-rule="evenodd"/>
          <path id="Path_245" data-name="Path 245" d="M229.3,49.941l-2.143-2.182a2.181,2.181,0,0,0,1.08-.91,2.952,2.952,0,0,0,.388-1.572,3.3,3.3,0,0,0-.183-1.132,2.468,2.468,0,0,0-.51-.858,2.153,2.153,0,0,0-.814-.54,2.81,2.81,0,0,0-1.08-.2H220.92v7.387h1.237v-6.1h3.889a1.362,1.362,0,0,1,1,.348,1.39,1.39,0,0,1,.357,1.05,1.541,1.541,0,0,1-.335,1.071,1.3,1.3,0,0,1-1.019.379h-2.97v1.285h2.666l1.808,1.969H229.3Z" transform="translate(-162.461 -29.741)" fill="#fff" fill-rule="evenodd"/>
          <path id="Path_246" data-name="Path 246" d="M245.567,48.643a2.32,2.32,0,0,1-.9-.174,2.118,2.118,0,0,1-.693-.51,2.079,2.079,0,0,1-.457-.767,2.968,2.968,0,0,1,0-1.929,2.16,2.16,0,0,1,.457-.753,1.928,1.928,0,0,1,.693-.488,2.174,2.174,0,0,1,.9-.183H247.3a2.174,2.174,0,0,1,.9.183,2.067,2.067,0,0,1,.714.488,2.327,2.327,0,0,1,.47.753,2.967,2.967,0,0,1,.161.958,3.028,3.028,0,0,1-.161.971,2.3,2.3,0,0,1-.47.767,2.255,2.255,0,0,1-.714.51,2.32,2.32,0,0,1-.9.174Zm1.738,1.3a3.265,3.265,0,0,0,1.4-.287,3.315,3.315,0,0,0,1.1-.8,3.551,3.551,0,0,0,.736-1.193,4.605,4.605,0,0,0,.257-1.5,3.936,3.936,0,0,0-.257-1.459,3.535,3.535,0,0,0-.714-1.154,3.306,3.306,0,0,0-1.1-.745,3.761,3.761,0,0,0-1.42-.257h-1.733a3.65,3.65,0,0,0-1.389.257,3.25,3.25,0,0,0-1.093.736,3.155,3.155,0,0,0-.723,1.141,4.053,4.053,0,0,0-.266,1.481,4.252,4.252,0,0,0,.266,1.5,3.591,3.591,0,0,0,.723,1.193,3.436,3.436,0,0,0,1.093.8,3.28,3.28,0,0,0,1.389.287Z" transform="translate(-174.416 -29.741)" fill="#fff" fill-rule="evenodd"/>
          <path id="Path_247" data-name="Path 247" d="M271.615,49.941v-1.3h-4.8V42.55H265.57v7.391Z" transform="translate(-187.664 -29.741)" fill="#fff" fill-rule="evenodd"/>
          <path id="Path_248" data-name="Path 248" d="M288.64,49.941v-1.3h-4.808V42.55H282.59v7.391Z" transform="translate(-197.271 -29.741)" fill="#fff" fill-rule="evenodd"/>
          <path id="Path_249" data-name="Path 249" d="M302.6,48.643a2.245,2.245,0,0,1-.889-.174,2.126,2.126,0,0,1-.706-.51,2.2,2.2,0,0,1-.457-.767,2.968,2.968,0,0,1,0-1.929A2.374,2.374,0,0,1,301,44.51a1.835,1.835,0,0,1,.706-.488,2.105,2.105,0,0,1,.889-.183h1.733a2.175,2.175,0,0,1,.9.183,1.952,1.952,0,0,1,.714.488,2.187,2.187,0,0,1,.47.753,2.652,2.652,0,0,1,.161.958,2.806,2.806,0,0,1-.161.971,2.1,2.1,0,0,1-.47.767,2.161,2.161,0,0,1-.714.51,2.321,2.321,0,0,1-.9.174Zm1.733,1.3a3.265,3.265,0,0,0,1.4-.287,3.441,3.441,0,0,0,1.111-.8,3.664,3.664,0,0,0,.723-1.193,4.283,4.283,0,0,0,.257-1.5,3.935,3.935,0,0,0-.257-1.459,3.536,3.536,0,0,0-.714-1.154,3.306,3.306,0,0,0-1.1-.745,3.713,3.713,0,0,0-1.42-.257h-1.733a3.65,3.65,0,0,0-1.389.257,3.251,3.251,0,0,0-1.093.736,3.339,3.339,0,0,0-.723,1.141,4.146,4.146,0,0,0-.266,1.481,4.252,4.252,0,0,0,.266,1.5,3.741,3.741,0,0,0,.723,1.193,3.435,3.435,0,0,0,1.093.8,3.281,3.281,0,0,0,1.389.287Z" transform="translate(-206.601 -29.741)" fill="#fff" fill-rule="evenodd"/>
          <path id="Path_250" data-name="Path 250" d="M337.643,49.947V45.5h-4.482v1.185h3.223v1.96h-3.053a2.32,2.32,0,0,1-.9-.174,2.119,2.119,0,0,1-.693-.51,1.968,1.968,0,0,1-.457-.767,2.71,2.71,0,0,1-.174-.971,2.588,2.588,0,0,1,.174-.958,2.038,2.038,0,0,1,.457-.753,1.928,1.928,0,0,1,.693-.488,2.174,2.174,0,0,1,.9-.183H337.2V42.56h-3.868a3.65,3.65,0,0,0-1.389.257,3.25,3.25,0,0,0-1.093.736,3.043,3.043,0,0,0-.723,1.141,3.878,3.878,0,0,0-.266,1.481,4.064,4.064,0,0,0,.266,1.5,3.388,3.388,0,0,0,.723,1.193,3.436,3.436,0,0,0,1.093.8,3.281,3.281,0,0,0,1.389.287h4.312Z" transform="translate(-223.952 -29.746)" fill="#fff" fill-rule="evenodd"/>
          <path id="Path_251" data-name="Path 251" d="M357.4,49.941v-1.3h-4.8V42.55H351.36v7.391Z" transform="translate(-236.088 -29.741)" fill="#fff" fill-rule="evenodd"/>
          <path id="Path_252" data-name="Path 252" d="M371.36,48.643a2.32,2.32,0,0,1-.9-.174,2.118,2.118,0,0,1-.693-.51,1.968,1.968,0,0,1-.457-.767,2.534,2.534,0,0,1-.174-.971,2.423,2.423,0,0,1,.174-.958,2.038,2.038,0,0,1,.457-.753,1.928,1.928,0,0,1,.693-.488,2.174,2.174,0,0,1,.9-.183h1.733a2.174,2.174,0,0,1,.9.183,2.067,2.067,0,0,1,.714.488,2.228,2.228,0,0,1,.457.753,2.658,2.658,0,0,1,.174.958,2.712,2.712,0,0,1-.174.971,2.345,2.345,0,0,1-.457.767,2.255,2.255,0,0,1-.714.51,2.32,2.32,0,0,1-.9.174Zm1.733,1.3a3.321,3.321,0,0,0,1.4-.287,3.407,3.407,0,0,0,1.1-.8,3.453,3.453,0,0,0,.723-1.193,4.288,4.288,0,0,0,.266-1.5,4.121,4.121,0,0,0-.257-1.459,3.536,3.536,0,0,0-.714-1.154,3.306,3.306,0,0,0-1.1-.745,3.761,3.761,0,0,0-1.42-.257h-1.733a3.6,3.6,0,0,0-1.389.257,3.167,3.167,0,0,0-1.093.736,3.243,3.243,0,0,0-.736,1.141,4.052,4.052,0,0,0-.257,1.481,4.248,4.248,0,0,0,.257,1.5,3.551,3.551,0,0,0,.736,1.193,3.3,3.3,0,0,0,1.093.8,3.253,3.253,0,0,0,1.389.287Z" transform="translate(-245.413 -29.741)" fill="#fff" fill-rule="evenodd"/>
          <path id="Path_253" data-name="Path 253" d="M396.637,46.689a1.16,1.16,0,0,1,.806.257.935.935,0,0,1,.274.714.884.884,0,0,1-.113.47.858.858,0,0,1-.318.3,1.431,1.431,0,0,1-.488.161,3.134,3.134,0,0,1-.623.052h-3.611V43.841h3.511a5.573,5.573,0,0,1,.623.03,1.49,1.49,0,0,1,.479.113.683.683,0,0,1,.3.257.821.821,0,0,1,.113.44.754.754,0,0,1-.266.645,1.312,1.312,0,0,1-.775.183H393.47v1.185h3.166Zm.052,3.258a2.649,2.649,0,0,0,.949-.161,1.946,1.946,0,0,0,.723-.47,1.833,1.833,0,0,0,.457-.723,2.438,2.438,0,0,0,.161-.941,1.8,1.8,0,0,0-.318-1.1,1.641,1.641,0,0,0-.8-.6,1.375,1.375,0,0,0,.7-.488,1.592,1.592,0,0,0,.213-.44,2.111,2.111,0,0,0,.083-.6,1.827,1.827,0,0,0-.174-.806,1.578,1.578,0,0,0-.47-.584,2.109,2.109,0,0,0-.736-.357,3.839,3.839,0,0,0-.941-.113H391.31v7.387h5.379Z" transform="translate(-258.638 -29.746)" fill="#fff" fill-rule="evenodd"/>
          <path id="Path_254" data-name="Path 254" d="M419.345,49.941l-4.112-6.982a.857.857,0,0,0-.257-.3.488.488,0,0,0-.348-.113.509.509,0,0,0-.348.113.958.958,0,0,0-.257.3l-4.1,6.982h1.42l3.245-5.592,1.594,2.635h-2.2l-.592,1.185h3.38l1.071,1.777h1.5Z" transform="translate(-269.142 -29.741)" fill="#fff" fill-rule="evenodd"/>
          <path id="Path_255" data-name="Path 255" d="M440.08,49.941v-1.3h-4.808V42.55H434.03v7.391Z" transform="translate(-282.751 -29.741)" fill="#fff" fill-rule="evenodd"/>
        </g>
      </g>
    </g>
  </g>
</svg>
