<svg id="Group_3543" data-name="Group 3543" xmlns="http://www.w3.org/2000/svg" width="323.556" height="53.911" viewBox="0 0 323.556 53.911">
  <g id="Group_1077" data-name="Group 1077">
    <path id="Path_218" data-name="Path 218" d="M34.366,12.91a5,5,0,1,1-4.94,5A4.967,4.967,0,0,1,34.366,12.91ZM27.32,48.091V31.223c0-8.542,14.071-8.628,14.071,0V48.091a19.271,19.271,0,0,1-14.071,0Z" transform="translate(-7.677 -3.628)" fill="#fff" fill-rule="evenodd"/>
    <path id="Path_219" data-name="Path 219" d="M21.118,21.42a3.782,3.782,0,1,1-3.724,3.789A3.752,3.752,0,0,1,21.118,21.42ZM15.79,43.889V35.246c0-4.177,4.465-5.68,7.614-4.451a8.316,8.316,0,0,0-.439,2.66V49.7A19.376,19.376,0,0,1,15.79,43.889ZM41,21.42a3.782,3.782,0,1,1-3.724,3.789A3.749,3.749,0,0,1,41,21.42ZM39.143,49.705V33.463a7.977,7.977,0,0,0-.424-2.646c3.149-1.244,7.614.216,7.614,4.429v8.642A19.4,19.4,0,0,1,39.143,49.705Z" transform="translate(-4.437 -6.019)" fill="#fff" fill-rule="evenodd"/>
    <path id="Path_220" data-name="Path 220" d="M26.5,48.317A21.187,21.187,0,0,1,5.508,26.955,21.187,21.187,0,0,1,26.5,5.594,21.19,21.19,0,0,1,47.511,26.955,21.19,21.19,0,0,1,26.5,48.317ZM26.5,0A26.728,26.728,0,0,0,0,26.955,26.728,26.728,0,0,0,26.5,53.911,26.74,26.74,0,0,0,53.019,26.955,26.74,26.74,0,0,0,26.5,0Z" fill="#fff" fill-rule="evenodd"/>
  </g>
  <g id="Group_138" data-name="Group 138" transform="translate(62.337 9.448)">
    <g id="Group_137" data-name="Group 137">
      <path id="Path_221" data-name="Path 221" d="M99.448,29.514V27.393h-6.37a3.589,3.589,0,0,1-1.481-.3,3.457,3.457,0,0,1-1.143-.827,3.307,3.307,0,0,1-.755-1.28,4.553,4.553,0,0,1,0-3.185,3.306,3.306,0,0,1,.755-1.229,3.532,3.532,0,0,1,1.143-.827,3.589,3.589,0,0,1,1.481-.3h6.37V17.32h-6.37a6.032,6.032,0,0,0-2.294.439,5.159,5.159,0,0,0-1.8,1.215,5.23,5.23,0,0,0-1.215,1.869,6.743,6.743,0,0,0-.424,2.445,6.9,6.9,0,0,0,.424,2.473,5.723,5.723,0,0,0,1.215,1.97,5.412,5.412,0,0,0,4.1,1.79h6.37Z" transform="translate(-86.88 -14.315)" fill="#fff" fill-rule="evenodd"/>
      <path id="Path_222" data-name="Path 222" d="M116.453,24.158V22.2h-6.521v1.956Zm.453,5.357V27.393h-8.491V19.441h8.477V17.32H106.38V29.514Z" transform="translate(-92.23 -14.315)" fill="#fff" fill-rule="evenodd"/>
      <path id="Path_223" data-name="Path 223" d="M133.784,29.076a1.294,1.294,0,0,0,.942.439.936.936,0,0,0,.741-.324,1.4,1.4,0,0,0,.288-.928V17.32h-1.97v8.894l-8.3-8.455a1.9,1.9,0,0,0-.439-.338,1.385,1.385,0,0,0-.439-.1.89.89,0,0,0-.755.352,1.291,1.291,0,0,0-.288.913V29.521h1.956v-8.8Z" transform="translate(-97.058 -14.315)" fill="#fff" fill-rule="evenodd"/>
      <path id="Path_224" data-name="Path 224" d="M148.4,29.514V19.441h4.465V17.32H141.88v2.121h4.465V29.514Z" transform="translate(-102.206 -14.315)" fill="#fff" fill-rule="evenodd"/>
      <path id="Path_225" data-name="Path 225" d="M172.592,29.509l-3.552-3.588a3.428,3.428,0,0,0,1.783-1.5,4.943,4.943,0,0,0,.64-2.6,5.83,5.83,0,0,0-.288-1.869,3.764,3.764,0,0,0-2.186-2.33,4.984,4.984,0,0,0-1.783-.324H158.73V29.494h2.056V19.435h6.421a2.31,2.31,0,0,1,1.654.575,2.35,2.35,0,0,1,.59,1.733,2.566,2.566,0,0,1-.575,1.783,2.173,2.173,0,0,1-1.668.626h-4.918v2.121H166.7l2.984,3.235Z" transform="translate(-106.941 -14.309)" fill="#fff" fill-rule="evenodd"/>
      <path id="Path_226" data-name="Path 226" d="M184.53,27.393a3.589,3.589,0,0,1-1.481-.3,3.457,3.457,0,0,1-1.143-.827,3.307,3.307,0,0,1-.755-1.28,4.553,4.553,0,0,1,0-3.185,3.306,3.306,0,0,1,.755-1.229,3.532,3.532,0,0,1,1.143-.827,3.589,3.589,0,0,1,1.481-.3h2.862a3.589,3.589,0,0,1,1.481.3,3.647,3.647,0,0,1,1.956,2.071,4.836,4.836,0,0,1,0,3.164,3.863,3.863,0,0,1-.777,1.28,3.681,3.681,0,0,1-1.179.827,3.589,3.589,0,0,1-1.481.3H184.53Zm2.869,2.121a5.481,5.481,0,0,0,2.308-.475,5.623,5.623,0,0,0,1.819-1.316,5.369,5.369,0,0,0,1.194-1.97,6.9,6.9,0,0,0,.439-2.473,6.549,6.549,0,0,0-.424-2.409,5.663,5.663,0,0,0-1.179-1.884,5.252,5.252,0,0,0-1.819-1.229,6.211,6.211,0,0,0-2.344-.439H184.53a6.032,6.032,0,0,0-2.294.439,5.364,5.364,0,0,0-1.8,1.215,4.912,4.912,0,0,0-1.194,1.869,6.455,6.455,0,0,0-.439,2.445,6.6,6.6,0,0,0,.439,2.473,5.468,5.468,0,0,0,1.194,1.97,5.672,5.672,0,0,0,1.8,1.316,5.415,5.415,0,0,0,2.294.475H187.4Z" transform="translate(-112.58 -14.315)" fill="#fff" fill-rule="evenodd"/>
      <path id="Path_227" data-name="Path 227" d="M209.826,27.393V19.441h4.767A3.637,3.637,0,0,1,218,21.814a4.494,4.494,0,0,1,0,3.164,3.638,3.638,0,0,1-.777,1.28,3.4,3.4,0,0,1-1.165.827,3.475,3.475,0,0,1-1.467.3h-4.767Zm4.767,2.121a5.435,5.435,0,0,0,2.308-.475,5.623,5.623,0,0,0,1.819-1.316,5.992,5.992,0,0,0,1.179-1.97,6.9,6.9,0,0,0,.439-2.473,6.553,6.553,0,0,0-.439-2.409,5.663,5.663,0,0,0-1.179-1.884,5.39,5.39,0,0,0-1.819-1.229,6.026,6.026,0,0,0-2.308-.439H207.77V29.514Z" transform="translate(-120.721 -14.315)" fill="#fff" fill-rule="evenodd"/>
      <path id="Path_228" data-name="Path 228" d="M237.736,24.158V22.2h-6.521v1.956Zm.46,5.357V27.393H229.7V19.441h8.477V17.32H227.67V29.514Z" transform="translate(-126.313 -14.315)" fill="#fff" fill-rule="evenodd"/>
      <path id="Path_229" data-name="Path 229" d="M263.138,29.514V27.393h-6.37a3.589,3.589,0,0,1-1.481-.3,3.457,3.457,0,0,1-1.143-.827,3.307,3.307,0,0,1-.755-1.28,4.554,4.554,0,0,1,0-3.185,3.306,3.306,0,0,1,.755-1.229,3.532,3.532,0,0,1,1.143-.827,3.589,3.589,0,0,1,1.481-.3h6.37V17.32h-6.37a6.032,6.032,0,0,0-2.294.439,5.159,5.159,0,0,0-1.8,1.215,5.23,5.23,0,0,0-1.215,1.869,6.743,6.743,0,0,0-.424,2.445,6.9,6.9,0,0,0,.424,2.473,5.723,5.723,0,0,0,1.215,1.97,5.412,5.412,0,0,0,4.1,1.79h6.37Z" transform="translate(-132.877 -14.315)" fill="#fff" fill-rule="evenodd"/>
      <path id="Path_230" data-name="Path 230" d="M284.522,29.514l-6.787-11.5a1.534,1.534,0,0,0-.4-.5.982.982,0,0,0-.575-.187.919.919,0,0,0-.59.187,1.49,1.49,0,0,0-.424.5l-6.773,11.5h2.344L276.67,20.3l2.632,4.35h-3.624l-.963,1.934h5.558l1.769,2.934Z" transform="translate(-137.918 -14.315)" fill="#fff" fill-rule="evenodd"/>
      <path id="Path_231" data-name="Path 231" d="M300.22,26.086a4.714,4.714,0,0,0,1.819-.324,4,4,0,0,0,1.366-.913,4.382,4.382,0,0,0,.841-1.395,5.456,5.456,0,0,0,.288-1.783,5.519,5.519,0,0,0-.288-1.819,4.322,4.322,0,0,0-.841-1.366,3.988,3.988,0,0,0-1.366-.863,5.156,5.156,0,0,0-1.819-.324h-8.29V29.494h2.056V19.435h6.234a2.341,2.341,0,0,1,1.682,3.911,2.2,2.2,0,0,1-1.682.626h-4.731v2.121h4.731Z" transform="translate(-144.37 -14.309)" fill="#fff" fill-rule="evenodd"/>
      <path id="Path_232" data-name="Path 232" d="M323.632,29.514l-6.787-11.5a1.344,1.344,0,0,0-.424-.5.919.919,0,0,0-.575-.187.993.993,0,0,0-.59.187,1.533,1.533,0,0,0-.4.5l-6.773,11.5h2.344l5.342-9.218,2.632,4.35h-3.6l-.978,1.934H319.4l1.769,2.934Z" transform="translate(-148.908 -14.315)" fill="#fff" fill-rule="evenodd"/>
      <path id="Path_233" data-name="Path 233" d="M340.7,29.514V27.393H334.31a3.59,3.59,0,0,1-1.481-.3,3.457,3.457,0,0,1-1.143-.827,3.307,3.307,0,0,1-.755-1.28,4.553,4.553,0,0,1,0-3.185,3.3,3.3,0,0,1,.755-1.229,3.533,3.533,0,0,1,1.143-.827,3.59,3.59,0,0,1,1.481-.3H340.7V17.32H334.31a6.032,6.032,0,0,0-2.294.439,5.364,5.364,0,0,0-1.8,1.215,4.912,4.912,0,0,0-1.194,1.869,6.455,6.455,0,0,0-.439,2.445,6.606,6.606,0,0,0,.439,2.473,5.468,5.468,0,0,0,1.194,1.97,5.671,5.671,0,0,0,1.8,1.316,5.416,5.416,0,0,0,2.294.475H340.7Z" transform="translate(-154.669 -14.315)" fill="#fff" fill-rule="evenodd"/>
      <rect id="Rectangle_1141" data-name="Rectangle 1141" width="2.056" height="12.194" transform="translate(187.709 3.005)" fill="#fff"/>
      <path id="Path_234" data-name="Path 234" d="M359.141,29.514V19.441h4.465V17.32H352.62v2.121h4.465V29.514Z" transform="translate(-161.424 -14.315)" fill="#fff" fill-rule="evenodd"/>
      <path id="Path_235" data-name="Path 235" d="M381.269,29.514,374.5,18.01a1.489,1.489,0,0,0-.424-.5,1,1,0,0,0-1.165,0,1.563,1.563,0,0,0-.424.5l-6.773,11.5h2.365l5.342-9.218,2.632,4.35h-3.624l-.963,1.934h5.558l1.769,2.934Z" transform="translate(-165.102 -14.315)" fill="#fff" fill-rule="evenodd"/>
      <path id="Path_236" data-name="Path 236" d="M398.341,29.514V27.393h-6.37a3.59,3.59,0,0,1-1.481-.3,3.316,3.316,0,0,1-1.143-.827,3.639,3.639,0,0,1-.776-1.28A4.378,4.378,0,0,1,388.3,23.4a4.575,4.575,0,0,1,.266-1.6,3.551,3.551,0,0,1,.776-1.229,3.386,3.386,0,0,1,1.143-.827,3.59,3.59,0,0,1,1.481-.3h6.37V17.32h-6.37a5.9,5.9,0,0,0-2.294.439,5.217,5.217,0,0,0-1.819,1.215,5.382,5.382,0,0,0-1.194,1.869,6.742,6.742,0,0,0-.424,2.445,6.9,6.9,0,0,0,.424,2.473,6.022,6.022,0,0,0,1.194,1.97,5.575,5.575,0,0,0,1.819,1.316,5.325,5.325,0,0,0,2.294.475h6.37Z" transform="translate(-170.871 -14.315)" fill="#fff" fill-rule="evenodd"/>
      <rect id="Rectangle_1142" data-name="Rectangle 1142" width="2.056" height="12.194" transform="translate(229.174 3.005)" fill="#fff"/>
      <path id="Path_237" data-name="Path 237" d="M420.33,14.456V13.14l-4.141,1.28v.963Zm-3.847,11.763a3.589,3.589,0,0,1-1.481-.3,3.5,3.5,0,0,1-1.143-.841,3.638,3.638,0,0,1-.755-1.265,4.378,4.378,0,0,1-.266-1.582,4.575,4.575,0,0,1,.266-1.6,3.7,3.7,0,0,1,.755-1.229A3.532,3.532,0,0,1,415,18.568a3.589,3.589,0,0,1,1.481-.3h2.862a3.59,3.59,0,0,1,1.481.3,3.647,3.647,0,0,1,1.956,2.071,4.836,4.836,0,0,1,0,3.164,3.8,3.8,0,0,1-.776,1.265,3.722,3.722,0,0,1-1.179.841,3.59,3.59,0,0,1-1.481.3h-2.862Zm2.869,2.121a5.39,5.39,0,0,0,2.308-.475,5.473,5.473,0,0,0,1.819-1.316,5.594,5.594,0,0,0,1.215-1.956,7.6,7.6,0,0,0,.424-2.473,6.574,6.574,0,0,0-.424-2.423,5.89,5.89,0,0,0-1.179-1.884,5.253,5.253,0,0,0-1.819-1.229,6.132,6.132,0,0,0-2.344-.439H416.49a6.032,6.032,0,0,0-2.294.439,5.364,5.364,0,0,0-1.8,1.215,5.032,5.032,0,0,0-1.194,1.884,6.691,6.691,0,0,0-.439,2.445A7.019,7.019,0,0,0,411.2,24.6a5.8,5.8,0,0,0,3,3.271,5.416,5.416,0,0,0,2.294.475h2.862Z" transform="translate(-177.761 -13.14)" fill="#fff" fill-rule="evenodd"/>
      <path id="Path_238" data-name="Path 238" d="M443.289,29.076a1.271,1.271,0,0,0,.942.439.907.907,0,0,0,.726-.324,1.416,1.416,0,0,0,.288-.928V17.32h-1.956v8.894l-8.3-8.455a1.941,1.941,0,0,0-.453-.338,1.3,1.3,0,0,0-.439-.1.89.89,0,0,0-.755.352,1.291,1.291,0,0,0-.288.913V29.521h1.956v-8.8Z" transform="translate(-184.025 -14.315)" fill="#fff" fill-rule="evenodd"/>
      <path id="Path_239" data-name="Path 239" d="M95.019,54.751V50.114l6.27-7.564H98.657l-4.594,5.63-4.6-5.63H86.7l6.248,7.564v4.638Z" transform="translate(-86.7 -21.404)" fill="#fff" fill-rule="evenodd"/>
      <path id="Path_240" data-name="Path 240" d="M119.265,52.609V44.671h4.781a3.522,3.522,0,0,1,1.467.3,3.228,3.228,0,0,1,1.165.805,3.841,3.841,0,0,1,.777,1.244,4.378,4.378,0,0,1,.266,1.582,4.632,4.632,0,0,1-.266,1.6,3.793,3.793,0,0,1-.777,1.265,3.437,3.437,0,0,1-1.165.841,3.758,3.758,0,0,1-1.467.288h-4.781Zm4.789,2.143a5.435,5.435,0,0,0,2.308-.475,5.642,5.642,0,0,0,1.8-1.316,6.049,6.049,0,0,0,1.194-1.97,7.6,7.6,0,0,0,.424-2.473,6.8,6.8,0,0,0-.424-2.409,5.869,5.869,0,0,0-1.194-1.905,5.545,5.545,0,0,0-1.8-1.229,6.022,6.022,0,0,0-2.308-.424H117.23V54.744h6.823Z" transform="translate(-95.279 -21.404)" fill="#fff" fill-rule="evenodd"/>
      <path id="Path_241" data-name="Path 241" d="M148.315,49.373V47.418h-6.536v1.956Zm.439,5.378V52.609h-8.477V44.671h8.455V42.55H138.22V54.744h10.533Z" transform="translate(-101.177 -21.404)" fill="#fff" fill-rule="evenodd"/>
      <path id="Path_242" data-name="Path 242" d="M165.349,54.749a4.253,4.253,0,0,0,1.6-.288,2.951,2.951,0,0,0,1.819-1.934,4.48,4.48,0,0,0,.237-1.467,3.613,3.613,0,0,0-.927-2.732,3.776,3.776,0,0,0-2.732-.913h-5.407a1.572,1.572,0,0,1-1.078-.352,1.281,1.281,0,0,1-.388-1.014,1.258,1.258,0,0,1,.388-1.014,1.514,1.514,0,0,1,1.114-.374h8.441V42.54h-8.441a4.565,4.565,0,0,0-1.567.252,3.422,3.422,0,0,0-1.143.7,2.928,2.928,0,0,0-.69,1.064,3.98,3.98,0,0,0,.014,2.747,3.146,3.146,0,0,0,.7,1.093,3.3,3.3,0,0,0,1.143.7,4.211,4.211,0,0,0,1.481.252h5.421a1.831,1.831,0,0,1,1.265.4,1.542,1.542,0,0,1,.453,1.215,1.587,1.587,0,0,1-.453,1.179,1.686,1.686,0,0,1-1.265.439h-8.829v2.143h8.837Z" transform="translate(-106.269 -21.401)" fill="#fff" fill-rule="evenodd"/>
      <path id="Path_243" data-name="Path 243" d="M190.7,54.751l-6.773-11.526a1.581,1.581,0,0,0-.424-.489.829.829,0,0,0-.575-.187.867.867,0,0,0-.59.187,1.581,1.581,0,0,0-.424.489L175.14,54.751H177.5l5.342-9.232,2.632,4.35h-3.624l-.963,1.956h5.558l1.769,2.934H190.7Z" transform="translate(-111.552 -21.404)" fill="#fff" fill-rule="evenodd"/>
      <path id="Path_244" data-name="Path 244" d="M213.1,54.751l-3.552-3.6a3.428,3.428,0,0,0,1.783-1.5,4.873,4.873,0,0,0,.64-2.6,5.83,5.83,0,0,0-.288-1.869,4.306,4.306,0,0,0-.841-1.416,3.731,3.731,0,0,0-1.345-.892,4.724,4.724,0,0,0-1.8-.324H199.24V54.744h2.042V44.671H207.7a2.251,2.251,0,0,1,1.668.575,2.294,2.294,0,0,1,.59,1.733,2.514,2.514,0,0,1-.575,1.769,2.11,2.11,0,0,1-1.682.626h-4.9v2.121h4.415l2.984,3.25H213.1Z" transform="translate(-118.324 -21.404)" fill="#fff" fill-rule="evenodd"/>
      <path id="Path_245" data-name="Path 245" d="M234.761,54.751l-3.537-3.6a3.6,3.6,0,0,0,1.783-1.5,4.873,4.873,0,0,0,.64-2.6,5.452,5.452,0,0,0-.3-1.869,4.074,4.074,0,0,0-.841-1.416,3.555,3.555,0,0,0-1.345-.892,4.638,4.638,0,0,0-1.783-.324H220.92V54.744h2.042V44.671h6.421a2.249,2.249,0,0,1,1.654.575,2.294,2.294,0,0,1,.59,1.733,2.543,2.543,0,0,1-.554,1.769,2.15,2.15,0,0,1-1.682.626h-4.9v2.121h4.4l2.984,3.25h2.89Z" transform="translate(-124.416 -21.404)" fill="#fff" fill-rule="evenodd"/>
      <path id="Path_246" data-name="Path 246" d="M247.823,52.609a3.83,3.83,0,0,1-1.481-.288,3.5,3.5,0,0,1-1.143-.841,3.433,3.433,0,0,1-.755-1.265,4.9,4.9,0,0,1,0-3.185,3.566,3.566,0,0,1,.755-1.244,3.183,3.183,0,0,1,1.143-.805,3.59,3.59,0,0,1,1.481-.3h2.862a3.59,3.59,0,0,1,1.481.3,3.412,3.412,0,0,1,1.179.805,3.841,3.841,0,0,1,.776,1.244,4.9,4.9,0,0,1,.266,1.582,5,5,0,0,1-.266,1.6,3.794,3.794,0,0,1-.776,1.265,3.722,3.722,0,0,1-1.179.841,3.83,3.83,0,0,1-1.481.288Zm2.869,2.143A5.39,5.39,0,0,0,253,54.277a5.474,5.474,0,0,0,1.819-1.316,5.861,5.861,0,0,0,1.215-1.97,7.6,7.6,0,0,0,.424-2.473,6.5,6.5,0,0,0-.424-2.409,5.835,5.835,0,0,0-1.179-1.905,5.458,5.458,0,0,0-1.819-1.229,6.208,6.208,0,0,0-2.344-.424H247.83a6.026,6.026,0,0,0-2.294.424,5.364,5.364,0,0,0-1.8,1.215,5.209,5.209,0,0,0-1.194,1.884,6.691,6.691,0,0,0-.439,2.445,7.019,7.019,0,0,0,.439,2.473,5.929,5.929,0,0,0,1.194,1.97,5.672,5.672,0,0,0,1.8,1.316,5.415,5.415,0,0,0,2.294.475Z" transform="translate(-130.368 -21.404)" fill="#fff" fill-rule="evenodd"/>
      <path id="Path_247" data-name="Path 247" d="M275.55,54.751V52.609h-7.923V42.55H265.57v12.2Z" transform="translate(-136.963 -21.404)" fill="#fff" fill-rule="evenodd"/>
      <path id="Path_248" data-name="Path 248" d="M292.577,54.751V52.609h-7.938V42.55H282.59v12.2Z" transform="translate(-141.745 -21.404)" fill="#fff" fill-rule="evenodd"/>
      <path id="Path_249" data-name="Path 249" d="M304.858,52.609a3.706,3.706,0,0,1-1.467-.288,3.51,3.51,0,0,1-1.165-.841,3.637,3.637,0,0,1-.755-1.265,4.9,4.9,0,0,1,0-3.185,3.919,3.919,0,0,1,.755-1.244,3.029,3.029,0,0,1,1.165-.805,3.475,3.475,0,0,1,1.467-.3h2.862a3.59,3.59,0,0,1,1.481.3,3.222,3.222,0,0,1,1.179.805,3.612,3.612,0,0,1,.777,1.244,4.378,4.378,0,0,1,.266,1.582,4.633,4.633,0,0,1-.266,1.6,3.475,3.475,0,0,1-.777,1.265,3.568,3.568,0,0,1-1.179.841,3.831,3.831,0,0,1-1.481.288Zm2.862,2.143a5.389,5.389,0,0,0,2.308-.475,5.681,5.681,0,0,0,1.833-1.316,6.048,6.048,0,0,0,1.194-1.97,7.069,7.069,0,0,0,.424-2.473,6.5,6.5,0,0,0-.424-2.409,5.836,5.836,0,0,0-1.179-1.905,5.458,5.458,0,0,0-1.819-1.229,6.129,6.129,0,0,0-2.344-.424H304.85a6.026,6.026,0,0,0-2.294.424,5.365,5.365,0,0,0-1.8,1.215,5.513,5.513,0,0,0-1.194,1.884,6.844,6.844,0,0,0-.439,2.445,7.02,7.02,0,0,0,.439,2.473,6.176,6.176,0,0,0,1.194,1.97,5.672,5.672,0,0,0,1.8,1.316,5.415,5.415,0,0,0,2.294.475Z" transform="translate(-146.39 -21.404)" fill="#fff" fill-rule="evenodd"/>
      <path id="Path_250" data-name="Path 250" d="M342.708,54.754V47.42h-7.4v1.956h5.321v3.235h-5.04a3.83,3.83,0,0,1-1.481-.288,3.5,3.5,0,0,1-1.143-.841,3.249,3.249,0,0,1-.755-1.265,4.475,4.475,0,0,1-.288-1.6,4.274,4.274,0,0,1,.288-1.582,3.365,3.365,0,0,1,.755-1.244,3.182,3.182,0,0,1,1.143-.805,3.589,3.589,0,0,1,1.481-.3h6.385V42.56H335.59a6.026,6.026,0,0,0-2.294.424,5.365,5.365,0,0,0-1.8,1.215,5.024,5.024,0,0,0-1.194,1.884,6.4,6.4,0,0,0-.439,2.445A6.71,6.71,0,0,0,330.3,51a5.594,5.594,0,0,0,1.194,1.97,5.672,5.672,0,0,0,1.8,1.316,5.416,5.416,0,0,0,2.294.475h7.118Z" transform="translate(-155.028 -21.407)" fill="#fff" fill-rule="evenodd"/>
      <path id="Path_251" data-name="Path 251" d="M361.333,54.751V52.609h-7.916V42.55H351.36v12.2Z" transform="translate(-161.07 -21.404)" fill="#fff" fill-rule="evenodd"/>
      <path id="Path_252" data-name="Path 252" d="M373.625,52.609a3.83,3.83,0,0,1-1.481-.288A3.5,3.5,0,0,1,371,51.48a3.249,3.249,0,0,1-.755-1.265,4.183,4.183,0,0,1-.288-1.6,4,4,0,0,1,.288-1.582A3.364,3.364,0,0,1,371,45.785a3.183,3.183,0,0,1,1.143-.805,3.589,3.589,0,0,1,1.481-.3h2.862a3.589,3.589,0,0,1,1.481.3,3.412,3.412,0,0,1,1.179.805,3.676,3.676,0,0,1,.755,1.244,4.386,4.386,0,0,1,.288,1.582,4.475,4.475,0,0,1-.288,1.6,3.871,3.871,0,0,1-.755,1.265,3.722,3.722,0,0,1-1.179.841,3.83,3.83,0,0,1-1.481.288Zm2.862,2.143a5.481,5.481,0,0,0,2.308-.475,5.624,5.624,0,0,0,1.819-1.316,5.7,5.7,0,0,0,1.194-1.97,7.078,7.078,0,0,0,.439-2.473,6.8,6.8,0,0,0-.424-2.409,5.836,5.836,0,0,0-1.179-1.905,5.458,5.458,0,0,0-1.819-1.229,6.208,6.208,0,0,0-2.344-.424h-2.862a5.948,5.948,0,0,0-2.294.424,5.227,5.227,0,0,0-1.8,1.215,5.354,5.354,0,0,0-1.215,1.884,6.689,6.689,0,0,0-.424,2.445,7.012,7.012,0,0,0,.424,2.473,5.862,5.862,0,0,0,1.215,1.97,5.443,5.443,0,0,0,1.8,1.316,5.37,5.37,0,0,0,2.294.475Z" transform="translate(-165.712 -21.404)" fill="#fff" fill-rule="evenodd"/>
      <path id="Path_253" data-name="Path 253" d="M400.1,49.376a1.916,1.916,0,0,1,1.33.424,1.544,1.544,0,0,1,.453,1.179,1.46,1.46,0,0,1-.187.777,1.415,1.415,0,0,1-.525.5,2.362,2.362,0,0,1-.805.266,5.174,5.174,0,0,1-1.028.086h-5.961V44.674h5.8a9.2,9.2,0,0,1,1.028.05,2.459,2.459,0,0,1,.791.187,1.127,1.127,0,0,1,.5.424,1.355,1.355,0,0,1,.187.726,1.244,1.244,0,0,1-.439,1.064,2.166,2.166,0,0,1-1.28.3h-5.091v1.956H400.1Zm.086,5.378a4.374,4.374,0,0,0,1.567-.266,3.214,3.214,0,0,0,1.194-.777,3.027,3.027,0,0,0,.755-1.194,4.023,4.023,0,0,0,.266-1.553,2.976,2.976,0,0,0-.525-1.819,2.71,2.71,0,0,0-1.316-.992,2.269,2.269,0,0,0,1.15-.805,2.628,2.628,0,0,0,.352-.726,3.485,3.485,0,0,0,.137-.992,3.016,3.016,0,0,0-.288-1.33,2.605,2.605,0,0,0-.776-.963,3.482,3.482,0,0,0-1.215-.59,6.339,6.339,0,0,0-1.553-.187H391.31V54.754h8.88Z" transform="translate(-172.296 -21.407)" fill="#fff" fill-rule="evenodd"/>
      <path id="Path_254" data-name="Path 254" d="M425.479,54.751l-6.787-11.526a1.415,1.415,0,0,0-.424-.489.806.806,0,0,0-.575-.187.841.841,0,0,0-.575.187,1.581,1.581,0,0,0-.424.489L409.92,54.751h2.344l5.357-9.232,2.631,4.35h-3.624l-.978,1.956h5.579L423,54.759h2.481Z" transform="translate(-177.525 -21.404)" fill="#fff" fill-rule="evenodd"/>
      <path id="Path_255" data-name="Path 255" d="M444.017,54.751V52.609h-7.938V42.55H434.03v12.2Z" transform="translate(-184.3 -21.404)" fill="#fff" fill-rule="evenodd"/>
    </g>
  </g>
</svg>
