<svg xmlns="http://www.w3.org/2000/svg" width="93" height="93" viewBox="0 0 93 93">
  <g id="Group_3608" data-name="Group 3608" transform="translate(-826 -5025)">
    <g id="Ellipse_359" data-name="Ellipse 359" transform="translate(826 5025)" fill="#f5f5f5" stroke="silver" stroke-width="2">
      <circle cx="46.5" cy="46.5" r="46.5" stroke="none"/>
      <circle cx="46.5" cy="46.5" r="45.5" fill="none"/>
    </g>
    <g id="transfer" transform="translate(841 5047)">
      <g id="Group_3067" data-name="Group 3067" transform="translate(0 0)">
        <path id="Path_3562" data-name="Path 3562" d="M61.155,67.3,45.7,51.844a2.207,2.207,0,0,0-3.768,1.561v6.622H26.486a2.207,2.207,0,1,0,0,4.415H44.144a2.207,2.207,0,0,0,2.207-2.207v-3.5L56.474,68.856,46.351,78.978v-3.5a2.207,2.207,0,0,0-2.207-2.207H19.864V66.648A2.207,2.207,0,0,0,16.1,65.088L.646,80.539a2.207,2.207,0,0,0,0,3.121L16.1,99.11a2.207,2.207,0,0,0,1.561.647,2.179,2.179,0,0,0,.845-.168,2.207,2.207,0,0,0,1.362-2.04V90.928H35.315a2.207,2.207,0,0,0,0-4.415H17.657a2.207,2.207,0,0,0-2.207,2.207v3.5L5.328,82.1,15.45,71.977v3.5a2.207,2.207,0,0,0,2.207,2.207h24.28v6.622a2.207,2.207,0,0,0,3.768,1.56L61.155,70.416A2.207,2.207,0,0,0,61.155,67.3Z" transform="translate(0 -51.198)"/>
      </g>
    </g>
  </g>
</svg>
