<svg id="Group_3449" data-name="Group 3449" xmlns="http://www.w3.org/2000/svg" width="19.443" height="15.554" viewBox="0 0 19.443 15.554">
  <path id="Path_1024" data-name="Path 1024" d="M17.985,17.554H1.458A1.46,1.46,0,0,1,0,16.1V3.458A1.46,1.46,0,0,1,1.458,2H17.985a1.46,1.46,0,0,1,1.458,1.458V16.1A1.46,1.46,0,0,1,17.985,17.554ZM1.458,2.972a.486.486,0,0,0-.486.486V16.1a.486.486,0,0,0,.486.486H17.985a.486.486,0,0,0,.486-.486V3.458a.486.486,0,0,0-.486-.486Z" transform="translate(0 -2)"/>
  <path id="Path_1025" data-name="Path 1025" d="M9.846,6.053H3.527A.527.527,0,1,1,3.527,5H9.846a.527.527,0,0,1,0,1.053Z" transform="translate(-0.214 -2.1)"/>
  <path id="Path_1026" data-name="Path 1026" d="M9.846,9.053H3.527A.527.527,0,0,1,3.527,8H9.846a.527.527,0,0,1,0,1.053Z" transform="translate(-0.214 -2.2)"/>
  <path id="Path_1027" data-name="Path 1027" d="M9.846,11.053H3.527a.527.527,0,0,1,0-1.053H9.846a.527.527,0,0,1,0,1.053Z" transform="translate(-0.214 -2.266)"/>
  <path id="Path_1028" data-name="Path 1028" d="M9.846,13.053H3.527a.527.527,0,1,1,0-1.053H9.846a.527.527,0,0,1,0,1.053Z" transform="translate(-0.214 -2.333)"/>
  <path id="Path_1029" data-name="Path 1029" d="M8.792,15.053H3.527a.527.527,0,0,1,0-1.053H8.792a.527.527,0,0,1,0,1.053Z" transform="translate(-0.188 -2.399)"/>
  <path id="Path_1030" data-name="Path 1030" d="M18.256,6.658,17.4,6.035l-.328-1.007H16.014l-.856-.622-.856.622H13.243l-.328,1.007-.856.622.328,1.007-.328,1.007.856.622.139.428a.389.389,0,0,0,0,.049v5.266a.527.527,0,0,0,.9.373L15.158,14.2l1.207,1.207a.528.528,0,0,0,.574.114.527.527,0,0,0,.325-.487V9.771c0-.017,0-.034,0-.049l.139-.428.856-.622L17.93,7.664l.328-1.007Zm-4.96.4.514-.374.2-.6h.636l.514-.374.514.374h.636l.2.6.514.374-.2.6.2.6-.514.374-.2.6H15.67l-.514.374-.514-.374h-.636l-.2-.6L13.3,8.269l.2-.6-.2-.6Zm2.234,6.024a.527.527,0,0,0-.745,0l-.68.68V10.3h.2l.856.622.856-.622h.2v3.465l-.68-.68Z" transform="translate(-0.979 -2.449)"/>
</svg>
