<svg xmlns="http://www.w3.org/2000/svg" width="14.44" height="18.29" viewBox="0 0 14.44 18.29">
  <path id="Path_1021" data-name="Path 1021" d="M15.958,2.925a.481.481,0,0,0-.481.481v14.44a.481.481,0,0,1-.481.481H4.407a1.444,1.444,0,0,1,0-2.888H13.07A1.446,1.446,0,0,0,14.514,14V2.444A1.446,1.446,0,0,0,13.07,1H3.444A1.446,1.446,0,0,0,2,2.444v14.44A2.41,2.41,0,0,0,4.407,19.29H15a1.446,1.446,0,0,0,1.444-1.444V3.407A.481.481,0,0,0,15.958,2.925ZM3.444,1.963H13.07a.481.481,0,0,1,.481.481V14a.481.481,0,0,1-.481.481H4.407a2.4,2.4,0,0,0-1.444.482V2.444A.481.481,0,0,1,3.444,1.963Z" transform="translate(-2 -1)" fill="#020202"/>
</svg>
