<svg xmlns="http://www.w3.org/2000/svg" width="24.422" height="24.422" viewBox="0 0 24.422 24.422">
  <path id="ic_settings_phone_24px" d="M16.568,11.141H13.854v2.714h2.714Zm5.427,0H19.281v2.714h2.714Zm4.07,8.819a15.413,15.413,0,0,1-4.844-.773,1.385,1.385,0,0,0-1.384.326L16.853,22.5a20.452,20.452,0,0,1-8.941-8.927l2.985-3a1.332,1.332,0,0,0,.339-1.37,15.413,15.413,0,0,1-.773-4.844A1.361,1.361,0,0,0,9.105,3H4.357A1.361,1.361,0,0,0,3,4.357,23.063,23.063,0,0,0,26.065,27.422a1.361,1.361,0,0,0,1.357-1.357V21.316A1.361,1.361,0,0,0,26.065,19.96Zm-1.357-8.819v2.714h2.714V11.141Z" transform="translate(-3 -3)"/>
</svg>
