<svg xmlns="http://www.w3.org/2000/svg" width="22.136" height="19.922" viewBox="0 0 22.136 19.922">
  <path id="Path_4952" data-name="Path 4952" d="M20.2,83.922H1.937a1.937,1.937,0,0,1-1.26-3.409.763.763,0,0,1,.089-.066A7.438,7.438,0,0,0,3.32,74.835V71.748A7.757,7.757,0,0,1,11.068,64a3.334,3.334,0,0,1,.546.033.83.83,0,1,1-.272,1.637,1.742,1.742,0,0,0-.273-.01A6.094,6.094,0,0,0,4.98,71.748v3.088a9.1,9.1,0,0,1-3.213,6.941c-.017.013-.031.026-.049.038a.274.274,0,0,0-.059.172.28.28,0,0,0,.277.277H20.2a.28.28,0,0,0,.277-.277.264.264,0,0,0-.06-.172l-.048-.038a9.1,9.1,0,0,1-3.213-6.941V73.629a.83.83,0,0,1,1.66,0v1.206a7.441,7.441,0,0,0,2.558,5.615.809.809,0,0,1,.085.064,1.936,1.936,0,0,1-1.26,3.408Zm0,0" transform="translate(0 -64)"/>
</svg>
