<svg xmlns="http://www.w3.org/2000/svg" width="23.954" height="23.954" viewBox="0 0 23.954 23.954">
  <g id="Group_3799" data-name="Group 3799" transform="translate(-56.626 -12.142)">
    <g id="Group_3790" data-name="Group 3790" transform="translate(56.626 12.142)">
      <path id="Path_5330" data-name="Path 5330" d="M24.7,12.6a11.392,11.392,0,1,1-11.4,11.4A11.395,11.395,0,0,1,24.7,12.6m0-.582A11.977,11.977,0,1,0,36.667,23.995,11.993,11.993,0,0,0,24.7,12.018Z" transform="translate(-12.713 -12.018)" fill="#fff"/>
    </g>
    <g id="Group_3791" data-name="Group 3791" transform="translate(61.709 18.173)">
      <path id="Path_5331" data-name="Path 5331" d="M13.648,23.711a6.476,6.476,0,0,0,3.126-.533,5.517,5.517,0,0,0,1.25-.756A2.979,2.979,0,0,1,15.3,20.5c-.065-.158-.065-.158.114-.147a2.364,2.364,0,0,0,1.1-.071,3.084,3.084,0,0,1-.707-.266,3.018,3.018,0,0,1-1.62-2.555c-.011-.136.027-.147.147-.092a2.939,2.939,0,0,0,1.174.321c-.19-.169-.353-.31-.506-.457a3.075,3.075,0,0,1-.473-3.392c.076-.152.1-.152.207-.033A8.459,8.459,0,0,0,19.96,16.72c.212.043.446.043.663.092.147.022.163-.049.141-.163a3,3,0,0,1,5.013-2.7.331.331,0,0,0,.332.082,5.575,5.575,0,0,0,1.577-.62.3.3,0,0,0,.13-.082,2.951,2.951,0,0,1-1.261,1.658,6.255,6.255,0,0,0,1.609-.419c.011.065-.043.109-.071.169a6.107,6.107,0,0,1-1.245,1.267.26.26,0,0,0-.109.239,8.7,8.7,0,0,1-2.066,5.85,8.082,8.082,0,0,1-5,2.805,8.519,8.519,0,0,1-5.959-1.158Z" transform="translate(-13.648 -13.127)" fill="#fff" fill-rule="evenodd"/>
    </g>
  </g>
</svg>
