<svg id="Group_3774" data-name="Group 3774" xmlns="http://www.w3.org/2000/svg" xmlns:xlink="http://www.w3.org/1999/xlink" width="25.3" height="25.306" viewBox="0 0 25.3 25.306">
  <defs>
    <linearGradient id="linear-gradient" x1="0.5" y1="-0.549" x2="0.5" y2="1.095" gradientUnits="objectBoundingBox">
      <stop offset="0.317" stop-color="#20a9e5"/>
      <stop offset="0.672" stop-color="#1686c3"/>
    </linearGradient>
  </defs>
  <path id="Path_5321" data-name="Path 5321" d="M38.121,19.307A12.65,12.65,0,1,1,25.474,6.654,12.66,12.66,0,0,1,38.121,19.307Z" transform="translate(-12.821 -6.654)" fill="url(#linear-gradient)"/>
  <g id="Group_3764" data-name="Group 3764" transform="translate(4.992 6.05)">
    <g id="Group_3763" data-name="Group 3763">
      <path id="Path_5322" data-name="Path 5322" d="M13.648,19.409a7.267,7.267,0,0,0,3.471-.6,6.1,6.1,0,0,0,1.388-.833,3.434,3.434,0,0,1-1.437-.356,3.279,3.279,0,0,1-1.588-1.775c-.072-.181-.072-.181.127-.169a2.625,2.625,0,0,0,1.219-.078,3.427,3.427,0,0,1-.785-.3,3.349,3.349,0,0,1-1.8-2.831c-.012-.145.03-.163.163-.1a3.474,3.474,0,0,0,1.3.356c-.211-.193-.392-.35-.561-.513a3.425,3.425,0,0,1-.525-3.773c.085-.157.115-.157.229-.03a9.421,9.421,0,0,0,5.8,3.236c.235.042.5.048.736.1.163.024.181-.054.157-.175a3.326,3.326,0,0,1,5.566-2.988.378.378,0,0,0,.368.085,6.361,6.361,0,0,0,1.751-.682.5.5,0,0,0,.145-.091,3.3,3.3,0,0,1-1.4,1.835,6.717,6.717,0,0,0,1.787-.471c.012.085-.048.127-.078.187a6.527,6.527,0,0,1-1.382,1.413.293.293,0,0,0-.121.272,9.669,9.669,0,0,1-2.294,6.5,8.966,8.966,0,0,1-5.554,3.109,9.428,9.428,0,0,1-6.616-1.286Z" transform="translate(-13.648 -7.656)" fill="#fff" fill-rule="evenodd"/>
    </g>
  </g>
</svg>
