<svg xmlns="http://www.w3.org/2000/svg" width="32.806" height="37.447" viewBox="0 0 32.806 37.447">
  <g id="Group_2904" data-name="Group 2904" transform="translate(-1481.738 -1070.309)">
    <path id="Path_2615" data-name="Path 2615" d="M1625.646,1101.787a17.757,17.757,0,0,1,1.187-1.634c.417-.461.418-.8-.02-1.221-.694-.665-1.356-1.364-2.043-2.037-1.671-1.637-1.222-1.72-3.046.066-.452.442-.419.785.016,1.206.99.959,1.95,1.948,2.932,2.914A11.175,11.175,0,0,0,1625.646,1101.787Z" transform="translate(-112.809 -20.464)" fill="#2a50e8"/>
    <path id="Path_2616" data-name="Path 2616" d="M1496.542,1074.969v-1.657c-.563,0-1.126-.031-1.684.008-.691.048-.984-.193-.968-.924.055-2.37-.253-2.057,2.031-2.073,1.794-.011,3.589.024,5.382-.014.762-.016,1.007.278,1,1.018-.021,2.389.073,1.952-1.934,1.987-.218,0-.436.025-.717.042V1075a16.336,16.336,0,0,1,12.786,8.4,15.875,15.875,0,0,1,1.766,11.211,16.4,16.4,0,0,1-32.381-1.5A16.586,16.586,0,0,1,1496.542,1074.969ZM1511.107,1091a12.975,12.975,0,1,0-12.443,13.356A12.982,12.982,0,0,0,1511.107,1091Z" transform="translate(0 0)" fill="#2a50e8"/>
    <path id="Path_2617" data-name="Path 2617" d="M1625.646,1101.787a11.175,11.175,0,0,1-.972-.705c-.982-.967-1.943-1.955-2.932-2.914-.435-.422-.468-.764-.016-1.206,1.824-1.786,1.375-1.7,3.046-.066.687.673,1.349,1.371,2.043,2.037.438.42.436.76.02,1.221A17.757,17.757,0,0,0,1625.646,1101.787Z" transform="translate(-112.809 -20.464)" fill="#2a50e8"/>
    <path id="Path_2618" data-name="Path 2618" d="M1574,1142.31q-1.417-1.781-2.847-3.578c-1.177-1.477-2.363-2.948-3.526-4.435a1.573,1.573,0,0,1-.4-.83c-.027-3.518-.018-7.036-.018-10.552,3.49-.716,8.413,2.519,10.134,6.653C1579.215,1134.083,1577.73,1139.859,1574,1142.31Z" transform="translate(-69.031 -42.411)" fill="#2a50e8"/>
  </g>
</svg>
