<svg xmlns="http://www.w3.org/2000/svg" width="32.932" height="40" viewBox="0 0 32.932 40">
  <g id="Group_2914" data-name="Group 2914" transform="translate(-607.489 -694.628)">
    <path id="Path_2635" data-name="Path 2635" d="M2014.237,1176.216c.71.854,1.344,1.67,2.044,2.426a3.18,3.18,0,0,0,.952.489,2.968,2.968,0,0,0,.367-.946c.03-2.621.026-5.242.008-7.864a.846.846,0,0,1,.509-.857,8.066,8.066,0,1,0-11.267-10.3,7.993,7.993,0,0,0,3.422,10.25.991.991,0,0,1,.586,1.017q-.039,3.862.007,7.725a2.984,2.984,0,0,0,.408.986,3.5,3.5,0,0,0,.941-.527C2012.9,1177.874,2013.521,1177.075,2014.237,1176.216Z" transform="translate(-1381.851 -444.514)" fill="#2a50e8"/>
    <path id="Path_2636" data-name="Path 2636" d="M1884.331,1044.03h25.462c.016.214.044.412.044.61q0,5.865,0,11.731c0,.161.048.368-.033.472-.151.2-.379.459-.575.459s-.455-.247-.587-.45c-.1-.149-.04-.4-.04-.608q0-5.072,0-10.144v-.8h-23.058V1076.2h17.239c.207,0,.457-.065.61.027.225.135.524.383.527.587s-.308.423-.511.6c-.066.059-.222.019-.337.019q-9.141,0-18.282,0c-.135,0-.27-.016-.46-.028Z" transform="translate(-1276.842 -349.402)" fill="#2a50e8"/>
    <path id="Path_2637" data-name="Path 2637" d="M2014.237,1176.216c-.715.858-1.338,1.657-2.023,2.4a3.5,3.5,0,0,1-.941.527,2.984,2.984,0,0,1-.408-.986q-.051-3.862-.007-7.725a.991.991,0,0,0-.586-1.017,7.993,7.993,0,0,1-3.422-10.25,8.066,8.066,0,1,1,11.267,10.3.846.846,0,0,0-.509.857c.018,2.621.022,5.243-.008,7.864a2.968,2.968,0,0,1-.367.946,3.18,3.18,0,0,1-.952-.489C2015.581,1177.887,2014.947,1177.07,2014.237,1176.216Zm6.82-13.784a6.755,6.755,0,0,0-6.7-6.876,6.834,6.834,0,1,0,6.7,6.876Zm-4.716,7.922h-4.191v6.4c.541-.647.977-1.178,1.424-1.7.518-.6.809-.6,1.328,0,.451.528.892,1.065,1.439,1.718Z" transform="translate(-1381.851 -444.514)" fill="#2a50e8"/>
    <path id="Path_2638" data-name="Path 2638" d="M1930.443,1109.574h-6.273c-.207,0-.458.06-.609-.035-.219-.139-.507-.395-.5-.6s.3-.445.515-.594c.128-.087.357-.031.541-.031H1936.8c.161,0,.366-.057.473.02.233.169.574.406.574.617s-.339.517-.584.587a4.406,4.406,0,0,1-1.164.034Z" transform="translate(-1310.224 -404.801)" fill="#2a50e8"/>
    <path id="Path_2639" data-name="Path 2639" d="M1930.358,1080.288c-2.159,0-4.319.008-6.478-.01a1.438,1.438,0,0,1-.807-.249.619.619,0,0,1-.06-.612.987.987,0,0,1,.67-.353c1.424-.032,2.848-.017,4.273-.017h8.684c.184,0,.412-.064.542.021a4.2,4.2,0,0,1,.623.608c-.208.2-.4.552-.626.578a19.467,19.467,0,0,1-2.133.034Z" transform="translate(-1310.139 -379.568)" fill="#2a50e8"/>
    <path id="Path_2640" data-name="Path 2640" d="M1929.129,1137.863q2.686,0,5.372,0c.463,0,.935.015.916.64-.017.563-.455.6-.9.6q-5.407,0-10.813,0c-.45,0-.875-.058-.884-.617s.415-.626.866-.625C1925.5,1137.866,1927.316,1137.863,1929.129,1137.863Z" transform="translate(-1310.022 -430.286)" fill="#2a50e8"/>
    <path id="Path_2641" data-name="Path 2641" d="M1928.248,1167.057c1.509,0,3.017,0,4.525,0,.417,0,.706.246.615.635a.879.879,0,0,1-.611.562c-2.214.037-4.429.019-6.644.01-.754,0-1.507-.01-2.26-.042-.356-.015-.8-.006-.792-.533s.364-.656.849-.65c1.439.02,2.879.007,4.318.007Z" transform="translate(-1310.245 -455.44)" fill="#2a50e8"/>
    <path id="Path_2642" data-name="Path 2642" d="M1927.124,1197.559c-1.169,0-2.339,0-3.508,0-.437,0-.808-.1-.8-.62s.373-.622.81-.622q3.508,0,7.016,0c.443,0,.8.129.8.631s-.374.615-.811.613C1929.462,1197.555,1928.293,1197.559,1927.124,1197.559Z" transform="translate(-1310.015 -480.677)" fill="#2a50e8"/>
    <path id="Path_2643" data-name="Path 2643" d="M1925.08,1250.3c-.505,0-1.011-.006-1.516,0-.424.007-.746-.135-.758-.6s.29-.636.721-.635c1.057,0,2.115-.036,3.168.028a.931.931,0,0,1,.666.578c.09.439-.263.631-.7.628C1926.136,1250.3,1925.608,1250.3,1925.08,1250.3Z" transform="translate(-1310.008 -526.141)" fill="#2a50e8"/>
    <path id="Path_2644" data-name="Path 2644" d="M2053.825,1270.233v6.421c-.547-.654-.988-1.191-1.439-1.719-.519-.607-.811-.607-1.328,0-.447.522-.883,1.052-1.424,1.7v-6.4Z" transform="translate(-1419.336 -544.393)" fill="#2a50e8"/>
    <path id="Path_2645" data-name="Path 2645" d="M2034.695,1191.255l4.5-4.544,1.246,1.3-5.707,5.715-3.558-3.571,1.352-1.271Z" transform="translate(-1403.423 -472.396)" fill="#fff"/>
  </g>
</svg>
