<svg id="check_code" data-name="check code" xmlns="http://www.w3.org/2000/svg" width="11.866" height="11.817" viewBox="0 0 11.866 11.817">
  <ellipse id="Ellipse_1" data-name="Ellipse 1" cx="5.933" cy="5.908" rx="5.933" ry="5.908" transform="translate(0 0)" fill="#2196f3"/>
  <path id="Forma_1" data-name="Forma 1" d="M668.366,6171.112a.227.227,0,0,1,0-.332l.336-.332a.234.234,0,0,1,.336,0l.024.023,1.318,1.4a.116.116,0,0,0,.168,0l3.212-3.294h.024a.234.234,0,0,1,.336,0l.336.332a.227.227,0,0,1,0,.332h0l-3.836,3.934a.233.233,0,0,1-.336,0l-1.87-1.99Z" transform="translate(-665.443 -6164.91)" fill="#fff"/>
</svg>
