<svg id="charlar" xmlns="http://www.w3.org/2000/svg" width="14" height="14" viewBox="0 0 14 14">
  <g id="Group_3698" data-name="Group 3698" transform="translate(2.625 2.625)">
    <g id="Group_3697" data-name="Group 3697">
      <path id="Path_5166" data-name="Path 5166" d="M101.688,96h-5.25a.438.438,0,0,0,0,.875h5.25a.438.438,0,0,0,0-.875Z" transform="translate(-96 -96)" fill="#fff"/>
    </g>
  </g>
  <g id="Group_3700" data-name="Group 3700" transform="translate(2.625 4.375)">
    <g id="Group_3699" data-name="Group 3699">
      <path id="Path_5167" data-name="Path 5167" d="M99.938,160h-3.5a.438.438,0,0,0,0,.875h3.5a.438.438,0,0,0,0-.875Z" transform="translate(-96 -160)" fill="#fff"/>
    </g>
  </g>
  <g id="Group_3702" data-name="Group 3702">
    <g id="Group_3701" data-name="Group 3701">
      <path id="Path_5168" data-name="Path 5168" d="M9.625,0H1.75A1.752,1.752,0,0,0,0,1.75V10.5a.437.437,0,0,0,.252.4.444.444,0,0,0,.186.041.437.437,0,0,0,.28-.1l2.5-2.086h6.4A1.752,1.752,0,0,0,11.375,7V1.75A1.752,1.752,0,0,0,9.625,0ZM10.5,7a.876.876,0,0,1-.875.875H3.063a.437.437,0,0,0-.28.1L.875,9.566V1.75A.876.876,0,0,1,1.75.875H9.625a.876.876,0,0,1,.875.875Z" fill="#fff"/>
    </g>
  </g>
  <g id="Group_3704" data-name="Group 3704" transform="translate(3.5 3.5)">
    <g id="Group_3703" data-name="Group 3703">
      <path id="Path_5169" data-name="Path 5169" d="M136.75,128a.438.438,0,0,0,0,.875.876.876,0,0,1,.875.875v7.4l-1.477-1.181a.441.441,0,0,0-.273-.1H129.75a.876.876,0,0,1-.875-.875v-.437a.438.438,0,0,0-.875,0V135a1.752,1.752,0,0,0,1.75,1.75h5.971l2.068,1.655a.438.438,0,0,0,.711-.342V129.75A1.752,1.752,0,0,0,136.75,128Z" transform="translate(-128 -128)" fill="#fff"/>
    </g>
  </g>
</svg>
