<svg xmlns="http://www.w3.org/2000/svg" width="20.126" height="25.135" viewBox="0 0 20.126 25.135">
  <g id="copy" transform="translate(-48.65)">
    <g id="Group_3606" data-name="Group 3606" transform="translate(48.65)">
      <path id="Path_5029" data-name="Path 5029" d="M62.322,85.4H50.637a1.988,1.988,0,0,0-1.987,1.987v16.765a1.988,1.988,0,0,0,1.987,1.987H62.322a1.988,1.988,0,0,0,1.987-1.987V87.387A2,2,0,0,0,62.322,85.4Zm.592,18.747a.6.6,0,0,1-.6.6H50.632a.6.6,0,0,1-.6-.6V87.387a.6.6,0,0,1,.6-.6H62.316a.6.6,0,0,1,.6.6Z" transform="translate(-48.65 -81.004)"/>
      <path id="Path_5030" data-name="Path 5030" d="M149.122,0H137.437a1.988,1.988,0,0,0-1.987,1.987.695.695,0,1,0,1.39,0,.6.6,0,0,1,.6-.6h11.685a.6.6,0,0,1,.6.6V18.752a.6.6,0,0,1-.6.6.695.695,0,1,0,0,1.39,1.988,1.988,0,0,0,1.987-1.987V1.987A1.988,1.988,0,0,0,149.122,0Z" transform="translate(-130.982)"/>
    </g>
  </g>
</svg>
