<svg xmlns="http://www.w3.org/2000/svg" width="21.241" height="12.039" viewBox="0 0 21.241 12.039">
  <g id="ojo" transform="translate(0.002 -110.897)">
    <g id="Group_3694" data-name="Group 3694" transform="translate(-0.002 110.897)">
      <g id="Group_3693" data-name="Group 3693" transform="translate(0 0)">
        <path id="Path_5164" data-name="Path 5164" d="M20.895,115.917a13.147,13.147,0,0,0-4.465-3.656,12.883,12.883,0,0,0-5.646-1.362c-.055,0-.274,0-.328,0a12.884,12.884,0,0,0-5.646,1.362,13.147,13.147,0,0,0-4.465,3.656,1.624,1.624,0,0,0,0,2,13.147,13.147,0,0,0,4.465,3.656,12.883,12.883,0,0,0,5.646,1.363c.055,0,.274,0,.328,0a12.883,12.883,0,0,0,5.646-1.363,13.147,13.147,0,0,0,4.465-3.656A1.624,1.624,0,0,0,20.895,115.917ZM5.194,120.8a12.278,12.278,0,0,1-4.17-3.414.761.761,0,0,1,0-.937A12.188,12.188,0,0,1,6.6,112.439a6.012,6.012,0,0,0,0,8.955A12.187,12.187,0,0,1,5.194,120.8Zm5.425,1.274a5.157,5.157,0,1,1,5.157-5.157A5.163,5.163,0,0,1,10.619,122.073Zm9.594-4.688a12.168,12.168,0,0,1-5.572,4.008,6.012,6.012,0,0,0,0-8.954,12.195,12.195,0,0,1,5.574,4.009A.761.761,0,0,1,20.213,117.385Z" transform="translate(0.002 -110.897)" fill="#fff"/>
      </g>
    </g>
    <g id="Group_3696" data-name="Group 3696" transform="translate(8.412 114.71)">
      <g id="Group_3695" data-name="Group 3695" transform="translate(0 0)">
        <path id="Path_5165" data-name="Path 5165" d="M205.012,202.8a2.207,2.207,0,1,0,2.207,2.207A2.209,2.209,0,0,0,205.012,202.8Zm0,3.55a1.343,1.343,0,1,1,1.343-1.343A1.344,1.344,0,0,1,205.012,206.354Z" transform="translate(-202.805 -202.804)" fill="#fff"/>
      </g>
    </g>
  </g>
</svg>
