<svg xmlns="http://www.w3.org/2000/svg" width="23.954" height="23.943" viewBox="0 0 23.954 23.943">
  <g id="Group_3801" data-name="Group 3801" transform="translate(-2.815 -12.012)">
    <g id="Group_3786" data-name="Group 3786" transform="translate(2.815 12.012)">
      <path id="Path_5325" data-name="Path 5325" d="M14.808,12.581a11.381,11.381,0,0,1,.968,22.72,5.261,5.261,0,0,1-.968.06,11.115,11.115,0,0,1-2.468-.266,11.39,11.39,0,0,1,2.468-22.513m0-.587a11.979,11.979,0,0,0-2.6,23.676,12.21,12.21,0,0,0,2.6.266,7.848,7.848,0,0,0,1.071-.049,11.971,11.971,0,0,0-1.071-23.894Z" transform="translate(-2.815 -11.994)" fill="#fff"/>
    </g>
    <g id="Group_3787" data-name="Group 3787" transform="translate(10.454 18.655)">
      <path id="Path_5326" data-name="Path 5326" d="M9.869,16.152a1.329,1.329,0,0,1,1.028-.359,6.011,6.011,0,0,1,1.555.217l.446-2.387a8.371,8.371,0,0,0-2.822-.408,4.6,4.6,0,0,0-2.354.506A2.565,2.565,0,0,0,6.46,15.01a6.133,6.133,0,0,0-.353,2.408v.941H4.22v2.729H6.106v8.584a11.115,11.115,0,0,0,2.468.266,5.261,5.261,0,0,0,.968-.06V21.088h2.5V18.359h-2.5v-.881A1.871,1.871,0,0,1,9.869,16.152Z" transform="translate(-4.22 -13.216)" fill="#fff"/>
    </g>
  </g>
</svg>
