<svg xmlns="http://www.w3.org/2000/svg" width="32.04" height="32.04" viewBox="0 0 32.04 32.04">
  <path id="whatsapp_2_" data-name="whatsapp (2)" d="M16.287,0A15.752,15.752,0,0,0,2.614,23.576L.027,31.337a.534.534,0,0,0,.642.685l8.473-2.229A15.753,15.753,0,1,0,16.287,0Zm9.83,22.906-.939.939a5.488,5.488,0,0,1-3.93,1.787h0c-1.917,0-3.984-1.095-6.143-3.254L9.662,16.935a10.744,10.744,0,0,1-3.109-4.916A5.287,5.287,0,0,1,8.2,6.862l.939-.939a2.023,2.023,0,0,1,2.337-.352c1.422.752,2.894,3.217,3.058,3.5a1.991,1.991,0,0,1,.258,1.508,1.394,1.394,0,0,1-.634.829,13.162,13.162,0,0,0-1.026.925,1.443,1.443,0,0,0,.218,2.115L17.6,18.7a1.439,1.439,0,0,0,2.122.213,13.6,13.6,0,0,0,.917-1.021,1.4,1.4,0,0,1,1.248-.69,2.212,2.212,0,0,1,1.082.31c.284.167,2.75,1.64,3.5,3.061A1.98,1.98,0,0,1,26.117,22.906Z" transform="translate(0)" fill="#2cb742"/>
</svg>
