<svg xmlns="http://www.w3.org/2000/svg" width="42.849" height="43.5" viewBox="0 0 42.849 43.5">
  <g id="Group_3481" data-name="Group 3481" transform="translate(0.75 0.75)">
    <path id="Path_3703" data-name="Path 3703" d="M73.655,319.656,47.119,346.192c-.786.787-2.639.21-4.138-1.289s-2.075-3.351-1.288-4.138l26.536-26.536" transform="translate(-34 -305)" fill="none" stroke="#2a50e8" stroke-linecap="round" stroke-linejoin="round" stroke-width="1.5"/>
    <ellipse id="Ellipse_382" data-name="Ellipse 382" cx="1.939" cy="3.773" rx="1.939" ry="3.773" transform="translate(32.961 10.703) rotate(-45)" fill="none" stroke="#2a50e8" stroke-linecap="round" stroke-linejoin="round" stroke-width="1.5"/>
    <path id="Path_3704" data-name="Path 3704" d="M61.1,332.211c-.787.787-2.64.21-4.138-1.288s-2.076-3.351-1.289-4.138" transform="translate(-34 -305)" fill="none" stroke="#2a50e8" stroke-linecap="round" stroke-linejoin="round" stroke-width="1.5"/>
    <path id="Path_3705" data-name="Path 3705" d="M61,341v-7.976h0a3,3,0,0,1,3,3.048V347" transform="translate(-34 -305)" fill="none" stroke="#2a50e8" stroke-linecap="round" stroke-linejoin="round" stroke-width="1.5"/>
    <path id="Path_3706" data-name="Path 3706" d="M39,339H34V305H61v12" transform="translate(-34 -305)" fill="none" stroke="#2a50e8" stroke-linecap="round" stroke-linejoin="round" stroke-width="1.5"/>
    <line id="Line_234" data-name="Line 234" x2="16" transform="translate(5 11)" fill="none" stroke="#2a50e8" stroke-linecap="round" stroke-linejoin="round" stroke-width="1.5"/>
    <line id="Line_235" data-name="Line 235" x2="16" transform="translate(5 7)" fill="none" stroke="#2a50e8" stroke-linecap="round" stroke-linejoin="round" stroke-width="1.5"/>
    <line id="Line_236" data-name="Line 236" x2="16" transform="translate(5 15)" fill="none" stroke="#2a50e8" stroke-linecap="round" stroke-linejoin="round" stroke-width="1.5"/>
    <line id="Line_237" data-name="Line 237" x2="11" transform="translate(5 19)" fill="none" stroke="#2a50e8" stroke-linecap="round" stroke-linejoin="round" stroke-width="1.5"/>
    <circle id="Ellipse_383" data-name="Ellipse 383" cx="2" cy="2" r="2" transform="translate(6 25)" fill="none" stroke="#2a50e8" stroke-linecap="round" stroke-linejoin="round" stroke-width="1.5"/>
  </g>
</svg>
