<svg xmlns="http://www.w3.org/2000/svg" width="33.635" height="33.635" viewBox="0 0 33.635 33.635">
  <path id="whatsapp_2_" data-name="whatsapp (2)" d="M17.1,0A16.536,16.536,0,0,0,2.745,24.75L.028,32.9a.56.56,0,0,0,.674.719L9.6,31.276A16.537,16.537,0,1,0,17.1,0ZM27.417,24.046l-.986.986a5.761,5.761,0,0,1-4.126,1.876h0c-2.013,0-4.183-1.149-6.448-3.416l-5.715-5.714a11.279,11.279,0,0,1-3.264-5.161A5.55,5.55,0,0,1,8.6,7.2l.986-.986a2.124,2.124,0,0,1,2.454-.369c1.492.79,3.038,3.378,3.21,3.67a2.09,2.09,0,0,1,.271,1.583,1.463,1.463,0,0,1-.666.87,13.817,13.817,0,0,0-1.077.971,1.515,1.515,0,0,0,.229,2.22l4.463,4.463a1.51,1.51,0,0,0,2.228.223,14.28,14.28,0,0,0,.963-1.072,1.472,1.472,0,0,1,1.311-.724,2.322,2.322,0,0,1,1.136.325c.3.175,2.886,1.722,3.676,3.213A2.078,2.078,0,0,1,27.417,24.046Z" transform="translate(0)" fill="#fff"/>
</svg>
