<svg id="instagram_1_" data-name="instagram(1)" xmlns="http://www.w3.org/2000/svg" width="27" height="27" viewBox="0 0 27 27">
  <path id="Shape" d="M18.562,27H8.437A8.447,8.447,0,0,1,0,18.562V8.437A8.447,8.447,0,0,1,8.437,0H18.562A8.447,8.447,0,0,1,27,8.437V18.562A8.448,8.448,0,0,1,18.562,27ZM8.437,2.531A5.913,5.913,0,0,0,2.531,8.437V18.562a5.913,5.913,0,0,0,5.906,5.907H18.562a5.914,5.914,0,0,0,5.907-5.907V8.437a5.913,5.913,0,0,0-5.907-5.906Z" fill="#fff"/>
  <path id="Shape-2" data-name="Shape" d="M6.5,13A6.5,6.5,0,1,1,13,6.5,6.507,6.507,0,0,1,6.5,13Zm0-10.562A4.062,4.062,0,1,0,10.562,6.5,4.068,4.068,0,0,0,6.5,2.438Z" transform="translate(7 7)" fill="#fff"/>
  <circle id="Oval" cx="0.888" cy="0.888" r="0.888" transform="translate(20.05 5.241)" fill="#fff"/>
</svg>
