<svg xmlns="http://www.w3.org/2000/svg" width="23.755" height="23.755" viewBox="0 0 23.755 23.755">
  <path id="lnr-gift" d="M23.13,6H19.378a3.124,3.124,0,0,0-2.5-5,5.7,5.7,0,0,0-3.91,2.2,9.166,9.166,0,0,0-1.091,1.544A9.217,9.217,0,0,0,10.786,3.2,5.7,5.7,0,0,0,6.877,1a3.124,3.124,0,0,0-2.5,5H.625A.625.625,0,0,0,0,6.626v3.751A.625.625,0,0,0,.625,11H1.25V22.88a1.878,1.878,0,0,0,1.875,1.875h17.5a1.878,1.878,0,0,0,1.875-1.875V11h.625a.625.625,0,0,0,.625-.625V6.626A.625.625,0,0,0,23.13,6ZM13.912,4.018A4.376,4.376,0,0,1,16.879,2.25a1.875,1.875,0,1,1,0,3.751H12.655A7.277,7.277,0,0,1,13.912,4.018Zm-.159,19.487H10V7.251h3.751ZM5,4.126A1.878,1.878,0,0,1,6.877,2.25,4.376,4.376,0,0,1,9.843,4.018,7.277,7.277,0,0,1,11.1,6H6.877A1.878,1.878,0,0,1,5,4.126ZM1.25,7.251h7.5v2.5H1.25ZM2.5,22.88V11H8.752v12.5H3.126A.625.625,0,0,1,2.5,22.88Zm18.754,0a.625.625,0,0,1-.625.625H15V11h6.251Zm1.25-13.128H15v-2.5h7.5Z" transform="translate(0 -1)" fill="#2a50e8"/>
</svg>
