<svg id="Group_3449" data-name="Group 3449" xmlns="http://www.w3.org/2000/svg" width="26.5" height="21.2" viewBox="0 0 26.5 21.2">
  <path id="Path_1024" data-name="Path 1024" d="M24.513,23.2H1.988A1.99,1.99,0,0,1,0,21.213V3.988A1.99,1.99,0,0,1,1.988,2H24.513A1.99,1.99,0,0,1,26.5,3.988V21.213A1.99,1.99,0,0,1,24.513,23.2ZM1.988,3.325a.663.663,0,0,0-.663.663V21.213a.663.663,0,0,0,.663.662H24.513a.663.663,0,0,0,.663-.662V3.988a.663.663,0,0,0-.663-.663Z" transform="translate(0 -2)" fill="#2a50e8"/>
  <path id="Path_1025" data-name="Path 1025" d="M12.33,6.435H3.718A.718.718,0,1,1,3.718,5H12.33a.718.718,0,1,1,0,1.435Z" transform="translate(0.797 -1.047)" fill="#2a50e8"/>
  <path id="Path_1026" data-name="Path 1026" d="M12.33,9.435H3.718A.718.718,0,1,1,3.718,8H12.33a.718.718,0,1,1,0,1.435Z" transform="translate(0.797 -0.094)" fill="#2a50e8"/>
  <path id="Path_1027" data-name="Path 1027" d="M12.33,11.435H3.718a.718.718,0,0,1,0-1.435H12.33a.718.718,0,0,1,0,1.435Z" transform="translate(0.797 0.541)" fill="#2a50e8"/>
  <path id="Path_1028" data-name="Path 1028" d="M12.33,13.435H3.718a.718.718,0,1,1,0-1.435H12.33a.718.718,0,1,1,0,1.435Z" transform="translate(0.797 1.176)" fill="#2a50e8"/>
  <path id="Path_1029" data-name="Path 1029" d="M10.895,15.435H3.718a.718.718,0,1,1,0-1.435h7.177a.718.718,0,0,1,0,1.435Z" transform="translate(0.833 1.812)" fill="#2a50e8"/>
  <path id="Path_1030" data-name="Path 1030" d="M20.505,7.475l-1.167-.848-.446-1.372H17.449l-1.167-.848-1.167.848H13.672l-.446,1.372-1.167.848.446,1.372-.446,1.372,1.167.848.189.583a.53.53,0,0,0,0,.067V18.9a.719.719,0,0,0,1.226.508l1.645-1.645L17.928,19.4a.719.719,0,0,0,.782.155.718.718,0,0,0,.444-.663V11.718c0-.023,0-.046,0-.067l.189-.583,1.167-.848-.446-1.372.446-1.372Zm-6.761.548.7-.51.268-.824h.867l.7-.51.7.51h.867l.268.824.7.51-.268.824.268.824-.7.51L17.848,11h-.867l-.7.51-.7-.51h-.867l-.268-.824-.7-.51.268-.824-.268-.824Zm3.045,8.211a.718.718,0,0,0-1.015,0l-.927.927V12.439h.268l1.167.848,1.167-.848h.268v4.723l-.927-.927Z" transform="translate(3.042 -1.739)" fill="#2a50e8"/>
</svg>
