<svg xmlns="http://www.w3.org/2000/svg" width="45.5" height="31.5" viewBox="0 0 45.5 31.5">
  <g id="Group_3482" data-name="Group 3482" transform="translate(0.75 0.75)">
    <path id="Path_3686" data-name="Path 3686" d="M404,245h5.206A2.794,2.794,0,0,1,412,247.794V267" transform="translate(-372 -243)" fill="none" stroke="#2a50e8" stroke-linecap="round" stroke-linejoin="round" stroke-width="1.5"/>
    <path id="Path_3687" data-name="Path 3687" d="M376,267V247.794A2.794,2.794,0,0,1,378.794,245H383" transform="translate(-372 -243)" fill="none" stroke="#2a50e8" stroke-linecap="round" stroke-linejoin="round" stroke-width="1.5"/>
    <path id="Path_3688" data-name="Path 3688" d="M404,248h4.036a.963.963,0,0,1,.964.963V267" transform="translate(-372 -243)" fill="none" stroke="#2a50e8" stroke-linecap="round" stroke-linejoin="round" stroke-width="1.5"/>
    <path id="Path_3689" data-name="Path 3689" d="M379,267V248.963a.963.963,0,0,1,.963-.963H383" transform="translate(-372 -243)" fill="none" stroke="#2a50e8" stroke-linecap="round" stroke-linejoin="round" stroke-width="1.5"/>
    <path id="Path_3690" data-name="Path 3690" d="M391.464,252a3.7,3.7,0,0,1,5.072,0" transform="translate(-372 -243)" fill="none" stroke="#2a50e8" stroke-linecap="round" stroke-linejoin="round" stroke-width="1.5"/>
    <path id="Path_3691" data-name="Path 3691" d="M388.728,249.165a7.494,7.494,0,0,1,10.544,0" transform="translate(-372 -243)" fill="none" stroke="#2a50e8" stroke-linecap="round" stroke-linejoin="round" stroke-width="1.5"/>
    <path id="Path_3692" data-name="Path 3692" d="M386,246.339a11.253,11.253,0,0,1,16,0" transform="translate(-372 -243)" fill="none" stroke="#2a50e8" stroke-linecap="round" stroke-linejoin="round" stroke-width="1.5"/>
    <rect id="Rectangle_2773" data-name="Rectangle 2773" width="5" height="4" transform="translate(11 15)" fill="none" stroke="#2a50e8" stroke-linecap="round" stroke-linejoin="round" stroke-width="1.5"/>
    <rect id="Rectangle_2774" data-name="Rectangle 2774" width="5" height="4" transform="translate(19 15)" fill="none" stroke="#2a50e8" stroke-linecap="round" stroke-linejoin="round" stroke-width="1.5"/>
    <rect id="Rectangle_2775" data-name="Rectangle 2775" width="5" height="4" transform="translate(27 15)" fill="none" stroke="#2a50e8" stroke-linecap="round" stroke-linejoin="round" stroke-width="1.5"/>
    <path id="Path_3693" data-name="Path 3693" d="M416,267H372v3.585A2.415,2.415,0,0,0,374.415,273h39.17A2.415,2.415,0,0,0,416,270.585Z" transform="translate(-372 -243)" fill="none" stroke="#2a50e8" stroke-linecap="round" stroke-linejoin="round" stroke-width="1.5"/>
    <path id="Path_3694" data-name="Path 3694" d="M388,267v1.725A1.275,1.275,0,0,0,389.275,270h9.45A1.275,1.275,0,0,0,400,268.725V267" transform="translate(-372 -243)" fill="none" stroke="#2a50e8" stroke-linecap="round" stroke-linejoin="round" stroke-width="1.5"/>
  </g>
</svg>
