<svg id="youtube" xmlns="http://www.w3.org/2000/svg" width="25.861" height="17.78" viewBox="0 0 25.861 17.78">
  <path id="Shape" d="M12.934,17.78c-3.154,0-7.2-.049-8.824-.144-1.555-.106-2.318-.348-3.016-1.579C.348,14.782,0,12.507,0,8.9V8.89C0,5.232.337,3.019,1.094,1.713,1.8.474,2.559.236,4.112.147,5.741.039,9.883,0,12.934,0s7.193.039,8.815.149c1.554.087,2.316.324,3.013,1.564.76,1.3,1.1,3.51,1.1,7.174V8.9c0,3.665-.339,5.873-1.1,7.159-.692,1.231-1.455,1.474-3.012,1.579C20.109,17.731,16.072,17.78,12.934,17.78ZM9.7,4.04v9.7L17.78,8.89Z" transform="translate(0 0)" fill="#fff"/>
</svg>
