<svg xmlns="http://www.w3.org/2000/svg" width="36.321" height="24.849" viewBox="0 0 36.321 24.849">
  <path id="lnr-graduation-hat" d="M35.665,9.784l-17.2-5.735a.96.96,0,0,0-.6,0L.654,9.784a.955.955,0,0,0,0,1.812L5.735,13.29v5.046a.963.963,0,0,0,.279.677c.168.168,4.194,4.1,12.146,4.1a20.487,20.487,0,0,0,8.019-1.546.956.956,0,0,0-.744-1.761,18.573,18.573,0,0,1-7.273,1.4,18.29,18.29,0,0,1-8.093-1.77,12.621,12.621,0,0,1-2.42-1.527V13.928l10.211,3.4a.943.943,0,0,0,.6,0l10.211-3.4v1.705a2.867,2.867,0,0,0-.206,5.324l-1.676,6.706a.955.955,0,0,0,.927,1.187h3.823a.955.955,0,0,0,.927-1.187l-1.676-6.706a2.867,2.867,0,0,0-.206-5.324V13.29L35.667,11.6a.955.955,0,0,0,0-1.812Zm-6.037,7.6a.956.956,0,1,1-.956.956A.956.956,0,0,1,29.629,17.38Zm-.688,9.558.688-2.749.688,2.749H28.943Zm.612-15.319L18.318,9.746A.955.955,0,0,0,18,11.63l7.673,1.279-7.516,2.506L3.98,10.688,18.161,5.961l14.182,4.727-2.789.929Z" transform="translate(0 -4)" fill="#2a50e8"/>
</svg>
