<svg xmlns="http://www.w3.org/2000/svg" width="27.207" height="27.217" viewBox="0 0 27.207 27.217">
  <g id="Group_2922" data-name="Group 2922" transform="translate(-265.775 -1059.706)">
    <path id="Path_2669" data-name="Path 2669" d="M265.779,1073.176a13.6,13.6,0,1,1,13.171,13.741A13.585,13.585,0,0,1,265.779,1073.176Zm13.431,11.949a11.814,11.814,0,1,0-11.661-12.37A11.774,11.774,0,0,0,279.21,1085.125Z" transform="translate(0 0)"/>
    <path id="Path_2670" data-name="Path 2670" d="M388.376,1188.714c.578.4.6.485.171,1.012a6.31,6.31,0,0,1-5.133,2.495c-.889-.007-1.243-.391-1-1.247.392-1.367.873-2.71,1.326-4.06.417-1.244.858-2.48,1.261-3.728.1-.316.344-.738-.059-.97-.376-.217-.667.175-.918.386a10.556,10.556,0,0,0-1.046,1.1c-.442.5-.533.488-.9-.137,1.259-1.62,2.664-3.061,4.828-3.4,1.462-.232,2.033.4,1.588,1.8-.573,1.811-1.241,3.592-1.86,5.389-.258.751-.52,1.5-.727,2.268a.955.955,0,0,0,.084.782c.26.242.573-.025.792-.215C387.326,1189.721,387.832,1189.223,388.376,1188.714Z" transform="translate(-106.736 -110.497)"/>
    <path id="Path_2671" data-name="Path 2671" d="M436.858,1122.794a1.841,1.841,0,1,1-.092,3.677,1.84,1.84,0,0,1,.092-3.677Z" transform="translate(-155.321 -57.895)"/>
  </g>
</svg>
