<svg id="Group_3450" data-name="Group 3450" xmlns="http://www.w3.org/2000/svg" width="17.368" height="22" viewBox="0 0 17.368 22">
  <path id="Path_1020" data-name="Path 1020" d="M15.819,18.247H4.563a.627.627,0,0,1,0-1.247H15.819a.627.627,0,0,1,0,1.247Z" transform="translate(-1.507 1.26)" fill="#2a50e8"/>
  <path id="Path_1021" data-name="Path 1021" d="M18.789,3.316a.579.579,0,0,0-.579.579V21.263a.579.579,0,0,1-.579.579H4.895a1.737,1.737,0,0,1,0-3.474H15.316a1.739,1.739,0,0,0,1.737-1.737V2.737A1.739,1.739,0,0,0,15.316,1H3.737A1.739,1.739,0,0,0,2,2.737V20.105A2.9,2.9,0,0,0,4.895,23H17.632a1.739,1.739,0,0,0,1.737-1.737V3.895A.579.579,0,0,0,18.789,3.316ZM3.737,2.158H15.316a.579.579,0,0,1,.579.579V16.632a.579.579,0,0,1-.579.579H4.895a2.884,2.884,0,0,0-1.737.58V2.737A.579.579,0,0,1,3.737,2.158Z" transform="translate(-2 -1)" fill="#2a50e8"/>
</svg>
