<svg xmlns="http://www.w3.org/2000/svg" width="37.5" height="39.5" viewBox="0 0 37.5 39.5">
  <g id="Group_3484" data-name="Group 3484" transform="translate(0.75 0.75)">
    <path id="Path_3695" data-name="Path 3695" d="M200,389H187.911a4,4,0,0,1-4-4h0" transform="translate(-172 -375)" fill="none" stroke="#2a50e8" stroke-linecap="round" stroke-linejoin="round" stroke-width="1.5"/>
    <path id="Path_3696" data-name="Path 3696" d="M183.184,406.4a9.961,9.961,0,0,0,6.727,2.6h0a9.968,9.968,0,0,0,6.918-2.779" transform="translate(-172 -375)" fill="none" stroke="#2a50e8" stroke-linecap="round" stroke-linejoin="round" stroke-width="1.5"/>
    <path id="Path_3697" data-name="Path 3697" d="M194.647,397.125A6.356,6.356,0,0,1,190,399.149h0a6.359,6.359,0,0,1-4.825-2.223" transform="translate(-172 -375)" fill="none" stroke="#2a50e8" stroke-linecap="round" stroke-linejoin="round" stroke-width="1.5"/>
    <path id="Path_3698" data-name="Path 3698" d="M184,402v2.116A2.884,2.884,0,0,1,181.116,407H178a6,6,0,0,0-6,6" transform="translate(-172 -375)" fill="none" stroke="#2a50e8" stroke-linecap="round" stroke-linejoin="round" stroke-width="1.5"/>
    <path id="Path_3699" data-name="Path 3699" d="M208,413a6,6,0,0,0-6-6h-3.116A2.884,2.884,0,0,1,196,404.116V402" transform="translate(-172 -375)" fill="none" stroke="#2a50e8" stroke-linecap="round" stroke-linejoin="round" stroke-width="1.5"/>
    <line id="Line_233" data-name="Line 233" y2="8" transform="translate(31 24)" fill="none" stroke="#2a50e8" stroke-linecap="round" stroke-linejoin="round" stroke-width="1.5"/>
    <path id="Path_3700" data-name="Path 3700" d="M177,407V388a13,13,0,0,1,13-13h0a13,13,0,0,1,13,13v8" transform="translate(-172 -375)" fill="none" stroke="#2a50e8" stroke-linecap="round" stroke-linejoin="round" stroke-width="1.5"/>
    <path id="Path_3701" data-name="Path 3701" d="M200,394a10,10,0,0,1-10,10h0a10,10,0,0,1-10-10v-5a10,10,0,0,1,10-10h0a10,10,0,0,1,10,10Z" transform="translate(-172 -375)" fill="none" stroke="#2a50e8" stroke-linecap="round" stroke-linejoin="round" stroke-width="1.5"/>
    <path id="Path_3702" data-name="Path 3702" d="M203,396h.5a3.5,3.5,0,0,0,3.5-3.5h0a3.5,3.5,0,0,0-3.5-3.5H203" transform="translate(-172 -375)" fill="none" stroke="#2a50e8" stroke-linecap="round" stroke-linejoin="round" stroke-width="1.5"/>
  </g>
</svg>
