<svg xmlns="http://www.w3.org/2000/svg" width="19.578" height="19.584" viewBox="0 0 19.578 19.584">
  <g id="Group_3606" data-name="Group 3606" transform="translate(-100.394 -459.162)">
    <path id="Path_4953" data-name="Path 4953" d="M265.778,1069.4a9.787,9.787,0,1,1,9.478,9.888A9.775,9.775,0,0,1,265.778,1069.4Zm9.664,8.6a8.5,8.5,0,1,0-8.391-8.9A8.472,8.472,0,0,0,275.442,1078Z" transform="translate(-165.381 -600.544)" fill="#fff"/>
    <path id="Path_4955" data-name="Path 4955" d="M386.612,1186.3c.416.29.434.349.123.728a4.54,4.54,0,0,1-3.693,1.8c-.64-.005-.895-.281-.718-.9.282-.984.628-1.95.954-2.921.3-.9.618-1.784.908-2.682.073-.227.248-.531-.042-.7-.27-.156-.48.126-.661.277a7.6,7.6,0,0,0-.753.792c-.318.356-.383.351-.644-.1a5.558,5.558,0,0,1,3.474-2.449c1.052-.167,1.463.285,1.143,1.3-.413,1.3-.893,2.585-1.338,3.878-.186.54-.374,1.081-.523,1.632a.687.687,0,0,0,.06.563c.187.174.413-.018.57-.155C385.856,1187.027,386.22,1186.669,386.612,1186.3Z" transform="translate(-274.569 -713.82)" fill="#fff"/>
    <path id="Path_4954" data-name="Path 4954" d="M436.344,1122.794a1.324,1.324,0,1,1-.066,2.646,1.324,1.324,0,0,1,.066-2.646Z" transform="translate(-324.182 -659.895)" fill="#fff"/>
  </g>
</svg>
