<svg xmlns="http://www.w3.org/2000/svg" width="25.213" height="25.591" viewBox="0 0 25.213 25.591">
  <g id="Group_3795" data-name="Group 3795" transform="translate(-1187.5 -26.919)">
    <ellipse id="Ellipse_433" data-name="Ellipse 433" cx="12.107" cy="12.296" rx="12.107" ry="12.296" transform="translate(1188 27.419)" fill="none" stroke="#fff" stroke-miterlimit="10" stroke-width="1"/>
    <path id="Icon-6" d="M138.172,999.624l2.739,2.738a2.993,2.993,0,0,1,.792,1.395v.024l.026.125.012.069.022.145v.077c0,.052.011.1.013.149l.015.129v.165a2.818,2.818,0,0,1-.03.318c-.015.089-.032.177-.054.262l-.034.125c-.013.048-.028.093-.045.141s-.032.089-.052.137-.037.089-.058.133a2.981,2.981,0,0,1-.6.863.867.867,0,0,1-1.213,0,.883.883,0,0,1,0-1.21,1.29,1.29,0,0,0,0-1.822l-.7-.706-.019-.02-2.016-2.016a1.291,1.291,0,1,0-1.827,1.825l1.618,1.621a.213.213,0,0,1,.047.234,3.606,3.606,0,0,0-.269,1.371v.081a.212.212,0,0,1-.131.2.215.215,0,0,1-.237-.044l-2.255-2.253a3.012,3.012,0,0,1,4.26-4.257Zm-.516,4.653a2.858,2.858,0,0,1,.407-.508.858.858,0,0,1,.662-.246.846.846,0,0,1,.547.246.882.882,0,0,1,0,1.209,1.29,1.29,0,0,0,0,1.822l2.746,2.745a1.29,1.29,0,1,0,1.827-1.822l-1.627-1.625a.213.213,0,0,1-.047-.234,3.612,3.612,0,0,0,.267-1.375v-.089a.213.213,0,0,1,.213-.214h0a.215.215,0,0,1,.154.06l2.258,2.258a3.012,3.012,0,0,1-4.262,4.257l-2.739-2.737A3,3,0,0,1,137.656,1004.277Z" transform="translate(1060.597 -965.679)" fill="#fff" fill-rule="evenodd"/>
  </g>
</svg>
