<svg xmlns="http://www.w3.org/2000/svg" width="23.948" height="23.954" viewBox="0 0 23.948 23.954">
  <g id="Group_3798" data-name="Group 3798" transform="translate(-84.174 -12.072)">
    <g id="Group_3792" data-name="Group 3792" transform="translate(84.174 12.072)">
      <path id="Path_5332" data-name="Path 5332" d="M29.751,12.587a11.4,11.4,0,1,1-11.384,11.4,11.4,11.4,0,0,1,11.384-11.4m0-.582A11.977,11.977,0,1,0,41.728,23.982,11.987,11.987,0,0,0,29.751,12Z" transform="translate(-17.78 -12.005)" fill="#fff"/>
    </g>
    <g id="Group_3793" data-name="Group 3793" transform="translate(89.991 17.9)">
      <path id="Path_5333" data-name="Path 5333" d="M29.538,13.077H20.481a1.464,1.464,0,0,0-1.631,1.647v9.041a1.443,1.443,0,0,0,1.582,1.609h9.106a1.463,1.463,0,0,0,1.631-1.62V14.686A1.462,1.462,0,0,0,29.538,13.077Zm-.995,1.4c1.218,0,1.218,0,1.218,1.223,0,1.185,0,1.185-1.2,1.185-1.212,0-1.212,0-1.212-1.207S27.353,14.474,28.543,14.474Zm-3.528,2.365a2.384,2.384,0,1,1-2.4,2.365A2.438,2.438,0,0,1,25.015,16.839Zm4.746,6.41c-.011.576-.158.734-.729.734H20.981c-.56,0-.723-.158-.723-.734,0-1.484.005-3-.022-4.491,0-.424.12-.516.511-.506.565.049.576.022.511.576A3.769,3.769,0,0,0,28.625,20.3a3.751,3.751,0,0,0,.087-1.767c-.043-.217.011-.256.2-.256.848-.065.848-.076.848.8Z" transform="translate(-18.85 -13.077)" fill="#fff" fill-rule="evenodd"/>
    </g>
  </g>
</svg>
