<svg xmlns="http://www.w3.org/2000/svg" width="28.742" height="19.736" viewBox="0 0 28.742 19.736">
  <path id="Path_3461" data-name="Path 3461" d="M2921.623,1545.873c0-1.01-.042-2.023.015-3.03.039-.688-.217-.818-.843-.755a25.4,25.4,0,0,0-9.907,3.266c-1.615.9-3.133,1.98-4.693,2.981-.2.13-.4.275-.779.54a6.494,6.494,0,0,1,.078-.763,19.8,19.8,0,0,1,6.412-10.588,19.325,19.325,0,0,1,8.805-4.224c.757-.149.985-.437.93-1.179-.068-.912-.016-1.833-.016-2.983l12.533,8.478-12.323,8.346Z" transform="translate(-2905.415 -1529.139)" fill="#fff"/>
</svg>
