<svg id="Group_3197" data-name="Group 3197" xmlns="http://www.w3.org/2000/svg" width="53.59" height="53.581" viewBox="0 0 53.59 53.581">
  <g id="Group_3194" data-name="Group 3194">
    <path id="Path_3972" data-name="Path 3972" d="M29.443,104.723a26.79,26.79,0,1,1,26.8-26.79A26.826,26.826,0,0,1,29.443,104.723Zm0-51.818A25.033,25.033,0,1,0,54.481,77.932,25.059,25.059,0,0,0,29.443,52.9Z" transform="translate(-2.653 -51.142)" fill="#fff"/>
  </g>
  <g id="Group_3195" data-name="Group 3195" transform="translate(12.842 14.115)">
    <path id="Path_3973" data-name="Path 3973" d="M15.637,78a.884.884,0,0,1-.656-.291L4.248,65.914a.888.888,0,0,1,0-1.181L14.981,52.941a.871.871,0,0,1,1.247-.056.884.884,0,0,1,.066,1.237l-10.2,11.2,10.2,11.2a.9.9,0,0,1-.066,1.247A.861.861,0,0,1,15.637,78Z" transform="translate(-4.023 -52.648)" fill="#fff"/>
  </g>
  <g id="Group_3196" data-name="Group 3196" transform="translate(12.842 25.909)">
    <path id="Path_3974" data-name="Path 3974" d="M31.048,55.668H4.9a.881.881,0,0,1,0-1.762H31.048a.881.881,0,0,1,0,1.762Z" transform="translate(-4.023 -53.906)" fill="#fff"/>
  </g>
</svg>
