<svg id="Group_3201" data-name="Group 3201" xmlns="http://www.w3.org/2000/svg" width="53.59" height="53.581" viewBox="0 0 53.59 53.581">
  <g id="Group_3198" data-name="Group 3198">
    <path id="Path_3975" data-name="Path 3975" d="M210.455,104.723a26.79,26.79,0,1,1,26.79-26.79A26.828,26.828,0,0,1,210.455,104.723Zm0-51.818a25.033,25.033,0,1,0,25.028,25.028A25.061,25.061,0,0,0,210.455,52.9Z" transform="translate(-183.655 -51.142)" fill="#fff"/>
  </g>
  <g id="Group_3199" data-name="Group 3199" transform="translate(28.256 14.115)">
    <path id="Path_3976" data-name="Path 3976" d="M187.547,78a.861.861,0,0,1-.591-.225.9.9,0,0,1-.066-1.247l10.2-11.2-10.2-11.2a.884.884,0,0,1,.066-1.237.871.871,0,0,1,1.247.056l10.733,11.792a.888.888,0,0,1,0,1.181L188.2,77.706A.884.884,0,0,1,187.547,78Z" transform="translate(-186.669 -52.648)" fill="#fff"/>
  </g>
  <g id="Group_3200" data-name="Group 3200" transform="translate(12.842 25.909)">
    <path id="Path_3977" data-name="Path 3977" d="M212.05,55.668H185.906a.881.881,0,1,1,0-1.762H212.05a.881.881,0,1,1,0,1.762Z" transform="translate(-185.025 -53.906)" fill="#fff"/>
  </g>
</svg>
