<svg id="Group_3773" data-name="Group 3773" xmlns="http://www.w3.org/2000/svg" xmlns:xlink="http://www.w3.org/1999/xlink" width="25.3" height="25.3" viewBox="0 0 25.3 25.3">
  <defs>
    <linearGradient id="linear-gradient" x1="0.49" y1="-0.398" x2="0.508" y2="1.168" gradientUnits="objectBoundingBox">
      <stop offset="0.132" stop-color="#01cf2d"/>
      <stop offset="0.794" stop-color="#009804"/>
    </linearGradient>
  </defs>
  <path id="Path_5318" data-name="Path 5318" d="M33.189,19.274A12.65,12.65,0,1,1,20.536,6.627,12.65,12.65,0,0,1,33.189,19.274Z" transform="translate(-7.889 -6.627)" fill="url(#linear-gradient)"/>
  <g id="Group_3761" data-name="Group 3761" transform="translate(4.941 4.896)">
    <path id="Path_5319" data-name="Path 5319" d="M23.917,13.384a7.706,7.706,0,0,0-7.5-5.946,9.236,9.236,0,0,0-1.473.157A7.677,7.677,0,0,0,9.676,18.8a.5.5,0,0,1,.066.38c-.356,1.171-.688,2.384-1.008,3.574-.048.211-.048.211.145.151,1.25-.338,2.481-.652,3.731-.96a.287.287,0,0,1,.272.018,7.7,7.7,0,0,0,11.035-8.578Zm-6.423,8.047a3.261,3.261,0,0,1-.887.078,6.628,6.628,0,0,1-3.471-.887.413.413,0,0,0-.392-.066c-.694.175-1.37.356-2.059.531-.145.048-.157.024-.127-.121.181-.64.356-1.286.555-1.95a.489.489,0,0,0-.078-.453,6.34,6.34,0,0,1,.223-7.16A6.087,6.087,0,0,1,17.765,8.9a6.032,6.032,0,0,1,4.884,4.847A6.34,6.34,0,0,1,17.494,21.431Z" transform="translate(-8.708 -7.438)" fill="#fff" fill-rule="evenodd"/>
    <path id="Path_5320" data-name="Path 5320" d="M15.238,15.364a2.122,2.122,0,0,1-.8-.109A7.8,7.8,0,0,1,10.282,12.2a4.363,4.363,0,0,1-.893-1.811,2.1,2.1,0,0,1,.688-2.059A1.221,1.221,0,0,1,11.1,8.175a1.121,1.121,0,0,1,.175.211c.217.543.447,1.05.67,1.576a.445.445,0,0,1-.03.326,3.023,3.023,0,0,1-.477.628.289.289,0,0,0-.042.423,5.1,5.1,0,0,0,2.626,2.252.292.292,0,0,0,.392-.085c.2-.223.392-.471.573-.712a.33.33,0,0,1,.429-.115c.38.175.749.356,1.111.519a1.368,1.368,0,0,0,.26.115c.38.193.38.223.332.628-.048.8-.664,1.207-1.37,1.407A1.348,1.348,0,0,1,15.238,15.364Z" transform="translate(-5.523 -4.003)" fill="#fff" fill-rule="evenodd"/>
  </g>
</svg>
