<svg xmlns="http://www.w3.org/2000/svg" width="23.959" height="23.959" viewBox="0 0 23.959 23.959">
  <g id="Group_3800" data-name="Group 3800" transform="translate(-29.813 -11.99)">
    <g id="Group_3788" data-name="Group 3788" transform="translate(29.813 11.99)">
      <path id="Path_5327" data-name="Path 5327" d="M19.758,12.577a11.392,11.392,0,1,1-11.39,11.39,11.391,11.391,0,0,1,11.39-11.39m0-.587A11.98,11.98,0,1,0,31.74,23.967,12,12,0,0,0,19.758,11.99Z" transform="translate(-7.781 -11.99)" fill="#fff"/>
    </g>
    <g id="Group_3789" data-name="Group 3789" transform="translate(34.851 16.986)">
      <path id="Path_5328" data-name="Path 5328" d="M22.4,18.259a6.935,6.935,0,0,0-6.758-5.35,9.791,9.791,0,0,0-1.327.136A6.916,6.916,0,0,0,9.58,23.135a.451.451,0,0,1,.06.343c-.321,1.066-.62,2.153-.908,3.224-.043.185-.043.185.13.141,1.125-.31,2.234-.6,3.36-.875a.293.293,0,0,1,.245.016A6.931,6.931,0,0,0,22.4,18.259ZM16.62,25.516a3.387,3.387,0,0,1-.8.065,6.02,6.02,0,0,1-3.126-.8.356.356,0,0,0-.353-.054c-.625.147-1.234.321-1.854.478-.13.038-.141.011-.114-.114.163-.571.321-1.153.5-1.751a.433.433,0,0,0-.071-.408,5.727,5.727,0,0,1,.2-6.459,5.482,5.482,0,0,1,5.861-2.256,5.426,5.426,0,0,1,4.4,4.371A5.713,5.713,0,0,1,16.62,25.516Z" transform="translate(-8.708 -12.909)" fill="#fff" fill-rule="evenodd"/>
      <path id="Path_5329" data-name="Path 5329" d="M14.652,20.111a1.8,1.8,0,0,1-.718-.092,7.023,7.023,0,0,1-3.746-2.751,3.918,3.918,0,0,1-.8-1.636A1.879,1.879,0,0,1,10,13.783a1.043,1.043,0,0,1,.924-.136.707.707,0,0,1,.158.179c.2.495.4.951.6,1.419a.394.394,0,0,1-.027.294,2.943,2.943,0,0,1-.429.576.253.253,0,0,0-.038.375,4.606,4.606,0,0,0,2.365,2.033.269.269,0,0,0,.353-.082c.179-.207.353-.435.516-.652a.292.292,0,0,1,.386-.087c.343.147.674.3,1,.457.087.049.152.076.234.114.343.169.343.19.3.56-.043.723-.6,1.087-1.234,1.267A1.11,1.11,0,0,1,14.652,20.111Z" transform="translate(-5.902 -9.885)" fill="#fff" fill-rule="evenodd"/>
    </g>
  </g>
</svg>
