<svg xmlns="http://www.w3.org/2000/svg" xmlns:xlink="http://www.w3.org/1999/xlink" width="19" height="18.87" viewBox="0 0 19 18.87">
  <defs>
    <clipPath id="clip-path">
      <rect width="19" height="18.87" fill="none"/>
    </clipPath>
    <linearGradient id="linear-gradient" y1="0.5" x2="1" y2="0.5" gradientUnits="objectBoundingBox">
      <stop offset="0" stop-color="#fff"/>
      <stop offset="1" stop-color="#fff"/>
    </linearGradient>
  </defs>
  <g id="Group_3798" data-name="Group 3798" transform="translate(-280 -801.78)">
    <g id="Repeat_Grid_1" data-name="Repeat Grid 1" transform="translate(280 801.78)" clip-path="url(#clip-path)">
      <g transform="translate(-280 -801.78)">
        <g id="Group_3686" data-name="Group 3686" transform="translate(280 801.78)" style="isolation: isolate">
          <path id="Path_5156" data-name="Path 5156" d="M593.572,971.923l1.236-6.478-2.091.728A9.433,9.433,0,1,0,592.458,978l-1.686-1.421a7.23,7.23,0,1,1-.284-9.628l-1.908.664Z" transform="translate(-575.808 -962.488)" fill="url(#linear-gradient)"/>
        </g>
      </g>
    </g>
    <path id="Path_5157" data-name="Path 5157" d="M598.789,977.107l-4.72-1.212v-3.87h-2.2v4.251a1.2,1.2,0,0,0,0,1v.329l.3.076a1.188,1.188,0,0,0,1.1.283l4.978,1.278Z" transform="translate(-303.546 -165.335)" fill="url(#linear-gradient)"/>
  </g>
</svg>
