<svg xmlns="http://www.w3.org/2000/svg" width="36.966" height="36.966" viewBox="0 0 36.966 36.966">
  <g id="caps-lock" transform="translate(0)">
    <path id="Path_3563" data-name="Path 3563" d="M31.552,5.413A18.483,18.483,0,0,0,5.413,31.552,18.483,18.483,0,0,0,31.552,5.413ZM18.483,34.8A16.317,16.317,0,1,1,34.8,18.483,16.335,16.335,0,0,1,18.483,34.8Z" transform="translate(0 0)" fill="#fff"/>
    <path id="Path_3564" data-name="Path 3564" d="M242.083,271A1.083,1.083,0,0,0,241,272.083v2.166a1.083,1.083,0,1,0,2.166,0v-2.166A1.083,1.083,0,0,0,242.083,271Z" transform="translate(-223.6 -251.434)" fill="#fff"/>
    <path id="Path_3565" data-name="Path 3565" d="M156.523,108.942h-.361v-1.083a6.859,6.859,0,1,0-13.718,0v1.083h-.361A1.083,1.083,0,0,0,141,110.025v10.83a1.083,1.083,0,0,0,1.083,1.083h14.44a1.083,1.083,0,0,0,1.083-1.083v-10.83A1.083,1.083,0,0,0,156.523,108.942Zm-11.913-1.083a4.693,4.693,0,1,1,9.386,0v1.083H144.61Zm10.83,11.913H143.166v-8.664H155.44Z" transform="translate(-130.82 -93.708)" fill="#fff"/>
  </g>
</svg>
