<svg xmlns="http://www.w3.org/2000/svg" width="24.537" height="24.545" viewBox="0 0 24.537 24.545">
  <g id="Group_3609" data-name="Group 3609" transform="translate(-797.506 -2863.5)">
    <path id="Path_2669" data-name="Path 2669" d="M265.779,1071.854a12.267,12.267,0,1,1,11.878,12.393A12.252,12.252,0,0,1,265.779,1071.854Zm12.112,10.776a10.654,10.654,0,1,0-10.517-11.156A10.619,10.619,0,0,0,277.891,1082.63Z" transform="translate(531.732 1803.794)" fill="#fff"/>
    <path id="Path_2670" data-name="Path 2670" d="M387.759,1187.87c.521.363.543.438.154.913a5.69,5.69,0,0,1-4.629,2.25c-.8-.007-1.121-.353-.9-1.125.354-1.233.788-2.444,1.2-3.661.376-1.122.774-2.236,1.138-3.362.092-.285.31-.665-.053-.875-.339-.2-.6.157-.828.348a9.526,9.526,0,0,0-.943.993c-.4.447-.481.44-.807-.124,1.136-1.461,2.4-2.76,4.354-3.07,1.319-.209,1.833.358,1.432,1.624-.517,1.633-1.119,3.24-1.677,4.86-.233.677-.469,1.355-.655,2.046a.861.861,0,0,0,.076.705c.235.219.517-.022.714-.194C386.811,1188.778,387.268,1188.329,387.759,1187.87Z" transform="translate(424.056 1692.324)" fill="#fff"/>
    <path id="Path_2671" data-name="Path 2671" d="M436.678,1122.794a1.66,1.66,0,1,1-.083,3.316,1.659,1.659,0,0,1,.083-3.316Z" transform="translate(375.044 1745.39)" fill="#fff"/>
  </g>
</svg>
